<svg width="814" height="1008" viewBox="0 0 814 1008" fill="none" xmlns="http://www.w3.org/2000/svg">
<g clip-path="url(#clip0_164:149)">
<path d="M108.534 336L515.533 336C523.036 336 529.099 332.245 529.099 327.6L529.099 176.401C529.099 171.755 523.035 168.001 515.533 168.001L108.534 168.001C101.031 168.001 94.9681 171.756 94.9681 176.401L81.4022 176.401C81.4022 171.755 75.3376 168.001 67.8362 168.001L13.5692 168.001C6.06618 168.001 0.00327828 171.756 0.00327805 176.401L0.00327071 327.6C0.00327049 332.246 6.06779 336 13.5692 336L67.833 336C75.336 336 81.3989 332.245 81.3989 327.6L94.9648 327.6C94.9665 332.245 101.031 336 108.534 336Z" fill="#F2F2F2"/>
<path d="M556.23 184.8L556.23 319.2C556.23 323.845 562.295 327.599 569.796 327.599L583.362 327.599C672.548 327.599 757.747 301.215 811.282 257.039C814.904 254.049 814.904 249.95 811.282 246.96C757.747 202.784 672.55 176.4 583.362 176.4L569.796 176.4C562.295 176.401 556.23 180.154 556.23 184.8Z" fill="#F2F2F2"/>
</g>
<g clip-path="url(#clip1_164:149)">
<path d="M108.534 588L515.533 588C523.036 588 529.099 584.245 529.099 579.6L529.099 428.401C529.099 423.755 523.035 420.001 515.533 420.001L108.534 420.001C101.031 420.001 94.9681 423.756 94.9681 428.401L81.4022 428.401C81.4022 423.755 75.3376 420.001 67.8362 420.001L13.5692 420.001C6.06618 420.001 0.00327828 423.756 0.00327805 428.401L0.00327071 579.6C0.00327049 584.246 6.06779 588 13.5692 588L67.833 588C75.336 588 81.3989 584.245 81.3989 579.6L94.9648 579.6C94.9665 584.245 101.031 588 108.534 588Z" fill="#F2F2F2"/>
<path d="M556.23 436.8L556.23 571.2C556.23 575.845 562.295 579.599 569.796 579.599L583.362 579.599C672.548 579.599 757.747 553.215 811.282 509.039C814.904 506.049 814.904 501.95 811.282 498.96C757.747 454.784 672.55 428.4 583.362 428.4L569.796 428.4C562.295 428.401 556.23 432.154 556.23 436.8Z" fill="#F2F2F2"/>
</g>
<g clip-path="url(#clip2_164:149)">
<path d="M108.534 840L515.533 840C523.036 840 529.099 836.245 529.099 831.6L529.099 680.401C529.099 675.755 523.035 672.001 515.533 672.001L108.534 672.001C101.031 672.001 94.9681 675.756 94.9681 680.401L81.4022 680.401C81.4022 675.755 75.3376 672.001 67.8362 672.001L13.5692 672.001C6.06618 672.001 0.00327828 675.756 0.00327805 680.401L0.00327071 831.6C0.00327049 836.246 6.06779 840 13.5692 840L67.833 840C75.336 840 81.3989 836.245 81.3989 831.6L94.9648 831.6C94.9665 836.245 101.031 840 108.534 840Z" fill="#F2F2F2"/>
<path d="M556.23 688.8L556.23 823.2C556.23 827.845 562.295 831.599 569.796 831.599L583.362 831.599C672.548 831.599 757.747 805.215 811.282 761.039C814.904 758.049 814.904 753.95 811.282 750.96C757.747 706.784 672.55 680.4 583.362 680.4L569.796 680.4C562.295 680.401 556.23 684.154 556.23 688.8Z" fill="#F2F2F2"/>
</g>
<defs>
<clipPath id="clip0_164:149">
<rect width="504" height="814" fill="white" transform="translate(814) rotate(90)"/>
</clipPath>
<clipPath id="clip1_164:149">
<rect width="504" height="814" fill="white" transform="translate(814 252) rotate(90)"/>
</clipPath>
<clipPath id="clip2_164:149">
<rect width="504" height="814" fill="white" transform="translate(814 504) rotate(90)"/>
</clipPath>
</defs>
</svg>
