<svg xmlns="http://www.w3.org/2000/svg" xmlns:xlink="http://www.w3.org/1999/xlink" viewBox="0 0 2475 1650"><defs><style>.cls-1,.cls-12,.cls-14,.cls-21,.cls-6,.cls-9{fill:#fff;}.cls-2,.cls-3{opacity:0.26;}.cls-2{fill:url(#linear-gradient);}.cls-3{fill:url(#linear-gradient-2);}.cls-4{opacity:0.53;}.cls-5{fill:url(#linear-gradient-3);}.cls-6{opacity:0.86;}.cls-7{opacity:0.88;}.cls-8{fill:url(#linear-gradient-4);}.cls-9{opacity:0.48;}.cls-10{fill:url(#linear-gradient-5);}.cls-11{fill:url(#linear-gradient-6);}.cls-12{opacity:0.56;}.cls-13{fill:url(#linear-gradient-7);}.cls-14{opacity:0.31;}.cls-15,.cls-21{opacity:0.37;}.cls-16{fill:url(#linear-gradient-8);}.cls-17{opacity:0.79;}.cls-18{fill:url(#linear-gradient-9);}.cls-19{fill:url(#linear-gradient-10);}.cls-20{fill:url(#linear-gradient-11);}.cls-22{fill:url(#linear-gradient-12);}.cls-23{fill:url(#linear-gradient-13);}.cls-24{fill:url(#linear-gradient-14);}.cls-25{fill:url(#linear-gradient-15);}.cls-26{fill:url(#linear-gradient-16);}.cls-27{fill:url(#linear-gradient-17);}.cls-28{fill:url(#linear-gradient-18);}.cls-29{fill:url(#linear-gradient-19);}.cls-30{fill:url(#linear-gradient-20);}.cls-31{fill:url(#linear-gradient-21);}.cls-32{fill:url(#linear-gradient-22);}.cls-33{fill:url(#linear-gradient-23);}.cls-34{fill:url(#linear-gradient-24);}.cls-35{fill:url(#linear-gradient-25);}.cls-36{fill:url(#linear-gradient-26);}.cls-37{fill:url(#linear-gradient-27);}.cls-38{fill:url(#linear-gradient-28);}.cls-39{fill:url(#linear-gradient-29);}.cls-40{fill:url(#linear-gradient-30);}.cls-41{fill:url(#linear-gradient-31);}.cls-42{fill:url(#linear-gradient-32);}.cls-43{fill:url(#linear-gradient-33);}.cls-44{fill:url(#linear-gradient-34);}.cls-45{fill:url(#linear-gradient-35);}.cls-46{fill:url(#linear-gradient-36);}.cls-47{fill:url(#linear-gradient-37);}.cls-48{fill:url(#linear-gradient-38);}.cls-49{fill:url(#linear-gradient-39);}.cls-50{fill:url(#linear-gradient-40);}.cls-51{opacity:0.64;}.cls-52{fill:url(#linear-gradient-41);}.cls-53{fill:url(#linear-gradient-42);}.cls-54{fill:url(#linear-gradient-43);}.cls-55{fill:url(#linear-gradient-44);}.cls-56{fill:url(#linear-gradient-45);}.cls-57{fill:#e992ec;}.cls-58{fill:url(#linear-gradient-46);}.cls-59{fill:url(#linear-gradient-47);}.cls-60{fill:url(#linear-gradient-48);}.cls-61{fill:url(#linear-gradient-49);}.cls-62{fill:url(#linear-gradient-50);}.cls-63{fill:url(#linear-gradient-51);}.cls-64{fill:url(#linear-gradient-52);}.cls-65{fill:url(#linear-gradient-53);}.cls-66{fill:url(#linear-gradient-54);}.cls-67{fill:url(#linear-gradient-55);}.cls-68{fill:url(#linear-gradient-56);}.cls-69{fill:url(#linear-gradient-57);}.cls-70{fill:url(#linear-gradient-58);}.cls-71{fill:url(#linear-gradient-59);}.cls-72{fill:url(#linear-gradient-60);}.cls-73{fill:url(#linear-gradient-61);}.cls-74{fill:url(#linear-gradient-62);}.cls-75{fill:url(#linear-gradient-63);}.cls-76{fill:url(#linear-gradient-64);}.cls-77{fill:url(#linear-gradient-65);}.cls-78{fill:url(#linear-gradient-66);}.cls-79{fill:url(#linear-gradient-67);}.cls-80{fill:url(#linear-gradient-68);}.cls-81{fill:url(#linear-gradient-69);}.cls-82{fill:url(#linear-gradient-70);}.cls-83{fill:url(#linear-gradient-71);}.cls-84{fill:url(#linear-gradient-72);}.cls-85{fill:url(#linear-gradient-73);}.cls-86{fill:url(#linear-gradient-74);}.cls-87{fill:url(#linear-gradient-75);}.cls-88{fill:url(#linear-gradient-76);}.cls-89{fill:url(#linear-gradient-77);}.cls-90{fill:url(#linear-gradient-78);}.cls-91{fill:url(#linear-gradient-79);}.cls-92{fill:url(#linear-gradient-80);}.cls-93{fill:url(#linear-gradient-81);}.cls-94{fill:url(#linear-gradient-82);}.cls-95{fill:url(#linear-gradient-83);}.cls-96{fill:url(#linear-gradient-84);}.cls-97{fill:url(#linear-gradient-85);}.cls-98{fill:url(#linear-gradient-86);}.cls-99{fill:url(#linear-gradient-87);}.cls-100{fill:url(#_3);}.cls-101{fill:url(#linear-gradient-88);}.cls-102{fill:url(#linear-gradient-89);}.cls-103{fill:url(#linear-gradient-90);}.cls-104{fill:url(#linear-gradient-91);}</style><linearGradient id="linear-gradient" x1="238.32" y1="759.62" x2="2415.99" y2="759.62" gradientTransform="translate(-188.89 41.16) rotate(-3.74)" gradientUnits="userSpaceOnUse"><stop offset="0" stop-color="#b37cff"/><stop offset="1" stop-color="#f895e7"/></linearGradient><linearGradient id="linear-gradient-2" x1="-1293.17" y1="828.42" x2="887.91" y2="828.42" gradientTransform="matrix(-1, 0.09, 0.09, 1, 995.27, -49.85)" xlink:href="#linear-gradient"/><linearGradient id="linear-gradient-3" x1="3174.18" y1="2072.95" x2="3648.74" y2="1746.82" gradientTransform="matrix(0.68, -0.73, 0.73, 0.68, -1751.55, 2075.71)" gradientUnits="userSpaceOnUse"><stop offset="0" stop-color="#a737d5"/><stop offset="1" stop-color="#ef497a"/></linearGradient><linearGradient id="linear-gradient-4" x1="2380.92" y1="-6516.66" x2="2812.92" y2="-6516.66" gradientTransform="matrix(-0.03, -0.97, -0.89, 0.03, -3665.54, 3666.16)" gradientUnits="userSpaceOnUse"><stop offset="0" stop-color="#cb236d"/><stop offset="1" stop-color="#4c246d"/></linearGradient><linearGradient id="linear-gradient-5" x1="8729.28" y1="1236.72" x2="8213.7" y2="1570.94" gradientTransform="matrix(-1, 0, 0, 1, 10651.48, 0)" xlink:href="#linear-gradient"/><linearGradient id="linear-gradient-6" x1="2226.54" y1="1018.71" x2="1774.86" y2="1509.32" gradientTransform="translate(25.17)" xlink:href="#linear-gradient-4"/><linearGradient id="linear-gradient-7" x1="2005.62" y1="1007.83" x2="1999.74" y2="1246.04" gradientTransform="translate(4029.63 2290.46) rotate(-180)" gradientUnits="userSpaceOnUse"><stop offset="0" stop-color="#53d8ff"/><stop offset="1" stop-color="#3840f7"/></linearGradient><linearGradient id="linear-gradient-8" x1="3148.89" y1="-2108" x2="3706.38" y2="-2108" gradientTransform="matrix(0.74, -0.67, 0.67, 0.74, -616.28, 4392.85)" xlink:href="#linear-gradient-7"/><linearGradient id="linear-gradient-9" x1="2639.29" y1="-2209.15" x2="3248.74" y2="-2209.15" gradientTransform="translate(871.14 4540.06) rotate(-60.7)" xlink:href="#linear-gradient-3"/><linearGradient id="linear-gradient-10" x1="1045.76" y1="1216.12" x2="1393.8" y2="172.02" gradientUnits="userSpaceOnUse"><stop offset="0" stop-color="#2b3582"/><stop offset="1" stop-color="#150e42"/></linearGradient><linearGradient id="linear-gradient-11" x1="1808.13" y1="118.85" x2="-71.16" y2="2265.31" gradientUnits="userSpaceOnUse"><stop offset="0" stop-color="#fdf53f"/><stop offset="1" stop-color="#d93c65"/></linearGradient><linearGradient id="linear-gradient-12" x1="1817.87" y1="1177.09" x2="353.41" y2="1533.31" xlink:href="#linear-gradient-10"/><linearGradient id="linear-gradient-13" x1="1699.33" y1="263.73" x2="1726.94" y2="177.45" gradientTransform="matrix(1.17, 0.07, -0.07, 1.18, -224.24, 154.83)" xlink:href="#linear-gradient-7"/><linearGradient id="linear-gradient-14" x1="1703.31" y1="205.81" x2="1837.9" y2="-92.12" gradientTransform="matrix(1.17, 0.07, -0.07, 1.18, -224.24, 154.83)" xlink:href="#linear-gradient-7"/><linearGradient id="linear-gradient-15" x1="1877.93" y1="349.61" x2="1850.33" y2="174.76" gradientTransform="matrix(1.17, 0.07, -0.07, 1.18, -224.24, 154.83)" xlink:href="#linear-gradient-7"/><linearGradient id="linear-gradient-16" x1="5218.54" y1="1283.49" x2="5045.11" y2="1951.53" gradientTransform="translate(-3144.35)" xlink:href="#linear-gradient-4"/><linearGradient id="linear-gradient-17" x1="5235.71" y1="1280.33" x2="5057.68" y2="1966.06" gradientTransform="translate(-3144.35)" xlink:href="#linear-gradient-4"/><linearGradient id="linear-gradient-18" x1="-2478.87" y1="1213.48" x2="-2688.07" y2="1488.14" gradientTransform="matrix(-1, 0, 0, 1, -600.53, 0)" xlink:href="#linear-gradient-11"/><linearGradient id="linear-gradient-19" x1="5040.76" y1="1435.83" x2="5123.46" y2="1435.83" gradientTransform="translate(-3144.35)" gradientUnits="userSpaceOnUse"><stop offset="0" stop-color="#f9b776"/><stop offset="1" stop-color="#f47960"/></linearGradient><linearGradient id="linear-gradient-20" x1="5091.36" y1="1489.71" x2="5079.2" y2="1676.2" gradientTransform="translate(-3144.35)" xlink:href="#linear-gradient-4"/><linearGradient id="linear-gradient-21" x1="4943.67" y1="1441.47" x2="5118.17" y2="1441.47" xlink:href="#linear-gradient-19"/><linearGradient id="linear-gradient-22" x1="-2525.58" y1="1159.34" x2="-2631.46" y2="1413.44" gradientTransform="matrix(-1, 0, 0, 1, -600.53, 0)" xlink:href="#linear-gradient-10"/><linearGradient id="linear-gradient-23" x1="4973.99" y1="1482.05" x2="4961.83" y2="1668.55" gradientTransform="translate(-3144.35)" xlink:href="#linear-gradient-4"/><linearGradient id="linear-gradient-24" x1="5143.03" y1="1200.76" x2="5235.75" y2="1402.57" gradientTransform="translate(-3144.35)" xlink:href="#linear-gradient-11"/><linearGradient id="linear-gradient-25" x1="5139.67" y1="1201.98" x2="5130.94" y2="1145.98" xlink:href="#linear-gradient-19"/><linearGradient id="linear-gradient-26" x1="5101.94" y1="1096.44" x2="5179.04" y2="1148.8" xlink:href="#linear-gradient-19"/><linearGradient id="linear-gradient-27" x1="5236.49" y1="998.06" x2="5107.18" y2="1132.6" gradientTransform="translate(-3144.35)" xlink:href="#linear-gradient-10"/><linearGradient id="linear-gradient-28" x1="5106.56" y1="1089.63" x2="5183.66" y2="1142" xlink:href="#linear-gradient-19"/><linearGradient id="linear-gradient-29" x1="5189.77" y1="1298.95" x2="5353.69" y2="1298.95" xlink:href="#linear-gradient-19"/><linearGradient id="linear-gradient-30" x1="5293.97" y1="1053.3" x2="5164.65" y2="1187.84" gradientTransform="translate(-3144.35)" xlink:href="#linear-gradient-10"/><linearGradient id="linear-gradient-31" x1="5026.09" y1="1646.3" x2="4922.9" y2="1674.58" gradientTransform="translate(-3135.68 -86.8) rotate(-2.83)" xlink:href="#linear-gradient-3"/><linearGradient id="linear-gradient-32" x1="5053.23" y1="1215.41" x2="4980.01" y2="1292.8" gradientTransform="translate(-3144.35)" xlink:href="#linear-gradient-3"/><linearGradient id="linear-gradient-33" x1="5008.96" y1="1234.68" x2="4975.74" y2="1284.71" gradientTransform="translate(-3144.35)" xlink:href="#linear-gradient-7"/><linearGradient id="linear-gradient-34" x1="4804.45" y1="1327.01" x2="5350.26" y2="1327.01" gradientTransform="translate(-3144.35)" gradientUnits="userSpaceOnUse"><stop offset="0" stop-color="#9cfffb"/><stop offset="1" stop-color="#9bfffa"/></linearGradient><linearGradient id="linear-gradient-35" x1="4835.8" y1="1446.65" x2="4943.54" y2="1446.65" xlink:href="#linear-gradient-34"/><linearGradient id="linear-gradient-36" x1="4848.24" y1="1446.65" x2="4955.99" y2="1446.65" xlink:href="#linear-gradient-34"/><linearGradient id="linear-gradient-37" x1="5223.14" y1="1446.65" x2="5330.89" y2="1446.65" xlink:href="#linear-gradient-34"/><linearGradient id="linear-gradient-38" x1="5235.58" y1="1446.65" x2="5343.33" y2="1446.65" xlink:href="#linear-gradient-34"/><linearGradient id="linear-gradient-39" x1="1266.2" y1="655.11" x2="1072.63" y2="1095.85" gradientTransform="matrix(1, 0, 0, 1, 0, 0)" xlink:href="#linear-gradient-4"/><linearGradient id="linear-gradient-40" x1="1366.82" y1="699.3" x2="1173.25" y2="1140.05" gradientTransform="matrix(1, 0, 0, 1, 0, 0)" xlink:href="#linear-gradient-4"/><linearGradient id="linear-gradient-41" x1="5096.74" y1="1416.92" x2="5675.73" y2="2438.4" gradientTransform="translate(4804.14 -2871) rotate(119.58)" xlink:href="#linear-gradient-4"/><linearGradient id="linear-gradient-42" x1="1159.03" y1="485.38" x2="1169.61" y2="864.46" gradientTransform="matrix(1, 0, 0, 1, 0, 0)" xlink:href="#linear-gradient-4"/><linearGradient id="linear-gradient-43" x1="1498.71" y1="608.56" x2="1667.63" y2="449.77" gradientTransform="matrix(1, 0, 0, 1, 0, 0)" xlink:href="#linear-gradient-4"/><linearGradient id="linear-gradient-44" x1="901.73" y1="758.87" x2="973.43" y2="588.43" gradientUnits="userSpaceOnUse"><stop offset="0" stop-color="#cb236d"/><stop offset="0.07" stop-color="#c2236d"/><stop offset="1" stop-color="#4c246d"/></linearGradient><linearGradient id="linear-gradient-45" x1="-3631.97" y1="674.15" x2="-3770.67" y2="905.71" gradientTransform="matrix(-1, 0, 0, 1, -2044.53, 0)" xlink:href="#linear-gradient-44"/><linearGradient id="linear-gradient-46" x1="7468.94" y1="1505.83" x2="7499.01" y2="1316.69" gradientTransform="matrix(-1, 0, 0, 1, 7948.49, 0)" xlink:href="#linear-gradient-4"/><linearGradient id="linear-gradient-47" x1="7480.65" y1="1507.12" x2="7511.69" y2="1311.87" gradientTransform="matrix(-1, 0, 0, 1, 7948.49, 0)" xlink:href="#linear-gradient-4"/><linearGradient id="linear-gradient-48" x1="3630.39" y1="1512.95" x2="3662.34" y2="1311.94" gradientTransform="matrix(-1, 0, 0, 1, 4122.49, 0)" xlink:href="#linear-gradient-11"/><linearGradient id="linear-gradient-49" x1="8897.17" y1="1457.23" x2="8872.61" y2="1505.53" gradientTransform="translate(-8317.13)" xlink:href="#linear-gradient-10"/><linearGradient id="linear-gradient-50" x1="8850.47" y1="1476.45" x2="8874.93" y2="1476.45" gradientTransform="translate(-8317.13)" xlink:href="#linear-gradient-19"/><linearGradient id="linear-gradient-51" x1="-3480.64" y1="999.36" x2="-3498.58" y2="1386.19" gradientTransform="matrix(-1, 0, 0, 1, -2965.19, 0)" xlink:href="#linear-gradient-7"/><linearGradient id="linear-gradient-52" x1="8882.92" y1="1506.06" x2="8797.78" y2="1617.39" gradientTransform="translate(-8317.13)" xlink:href="#linear-gradient-10"/><linearGradient id="linear-gradient-53" x1="8840.31" y1="1530.17" x2="8906.09" y2="1530.17" gradientTransform="translate(-8317.13)" xlink:href="#linear-gradient-7"/><linearGradient id="linear-gradient-54" x1="8832.78" y1="1499.02" x2="8855.74" y2="1499.02" gradientTransform="translate(-8317.13)" xlink:href="#linear-gradient-19"/><linearGradient id="linear-gradient-55" x1="8779.14" y1="1484.33" x2="8784.87" y2="1289.5" gradientTransform="translate(-8317.13)" xlink:href="#linear-gradient-7"/><linearGradient id="linear-gradient-56" x1="8921.18" y1="1294.85" x2="8864.7" y2="1206.44" gradientTransform="translate(-8317.13)" xlink:href="#linear-gradient-4"/><linearGradient id="linear-gradient-57" x1="8902.94" y1="1234.25" x2="8983.03" y2="1234.25" gradientTransform="translate(-8317.13)" xlink:href="#linear-gradient-19"/><linearGradient id="linear-gradient-58" x1="-3489.4" y1="1164.19" x2="-3279.36" y2="1289.15" gradientTransform="matrix(-1, 0, 0, 1, -2965.19, 0)" xlink:href="#linear-gradient-4"/><linearGradient id="linear-gradient-59" x1="8826.51" y1="1116.05" x2="8879.66" y2="1116.05" gradientTransform="translate(-8317.13)" xlink:href="#linear-gradient-19"/><linearGradient id="linear-gradient-60" x1="-3468.63" y1="1129.27" x2="-3258.59" y2="1254.22" gradientTransform="matrix(-1, 0, 0, 1, -2965.19, 0)" xlink:href="#linear-gradient-4"/><linearGradient id="linear-gradient-61" x1="427.47" y1="901.83" x2="435.47" y2="1207.82" gradientTransform="matrix(1, 0, 0, 1, 0, 0)" xlink:href="#linear-gradient-4"/><linearGradient id="linear-gradient-62" x1="8790.28" y1="1235.22" x2="8586.82" y2="1588.76" gradientTransform="translate(-8317.13)" xlink:href="#linear-gradient-19"/><linearGradient id="linear-gradient-63" x1="8548.62" y1="-3440.02" x2="8483.07" y2="-3389.87" gradientTransform="matrix(0.92, 0.39, -0.39, 0.92, -8632.79, 945.68)" xlink:href="#linear-gradient-19"/><linearGradient id="linear-gradient-64" x1="-3461.37" y1="943.98" x2="-3538.48" y2="1080.46" gradientTransform="matrix(-1, 0, 0, 1, -2965.19, 0)" xlink:href="#linear-gradient-10"/><linearGradient id="linear-gradient-65" x1="8540.49" y1="-3450.65" x2="8474.94" y2="-3400.49" gradientTransform="matrix(0.92, 0.39, -0.39, 0.92, -8632.79, 945.68)" xlink:href="#linear-gradient-19"/><linearGradient id="linear-gradient-66" x1="3366.85" y1="1409.18" x2="3491.67" y2="1409.18" gradientTransform="matrix(-1, 0, 0, 1, 4122.49, 0)" xlink:href="#linear-gradient-34"/><linearGradient id="linear-gradient-67" x1="3381.26" y1="1409.18" x2="3506.09" y2="1409.18" gradientTransform="matrix(-1, 0, 0, 1, 4122.49, 0)" xlink:href="#linear-gradient-34"/><linearGradient id="linear-gradient-68" x1="3719.58" y1="1409.18" x2="3844.4" y2="1409.18" gradientTransform="matrix(-1, 0, 0, 1, 4122.49, 0)" xlink:href="#linear-gradient-34"/><linearGradient id="linear-gradient-69" x1="3734" y1="1409.18" x2="3858.82" y2="1409.18" gradientTransform="matrix(-1, 0, 0, 1, 4122.49, 0)" xlink:href="#linear-gradient-34"/><linearGradient id="linear-gradient-70" x1="3337.42" y1="1278.18" x2="3866.84" y2="1278.18" gradientTransform="matrix(-1, 0, 0, 1, 4122.49, 0)" xlink:href="#linear-gradient-34"/><linearGradient id="linear-gradient-71" x1="3544.33" y1="1494.68" x2="3440.16" y2="1523.23" gradientTransform="matrix(-1, -0.05, -0.05, 1, 4113.82, -86.8)" xlink:href="#linear-gradient-10"/><linearGradient id="linear-gradient-72" x1="-3585.8" y1="1253.44" x2="-3316.95" y2="1430.93" gradientTransform="matrix(-1, 0, 0, 1, -2965.19, 0)" xlink:href="#linear-gradient-10"/><linearGradient id="linear-gradient-73" x1="3436.91" y1="1183.16" x2="3403.37" y2="1233.66" gradientTransform="matrix(-0.31, -0.95, -0.95, 0.31, 2895.29, 4093.58)" xlink:href="#linear-gradient-7"/><linearGradient id="linear-gradient-74" x1="2303.6" y1="727.88" x2="1941.23" y2="1239.15" gradientTransform="matrix(-0.98, -0.17, -0.17, 0.98, 3621.75, 546.62)" xlink:href="#linear-gradient-10"/><linearGradient id="linear-gradient-75" x1="1867.63" y1="1482.73" x2="1908.97" y2="1482.73" gradientTransform="matrix(-1, 0, 0, 1, 3398.5, 0)" xlink:href="#linear-gradient-4"/><linearGradient id="linear-gradient-76" x1="1971.11" y1="1433.97" x2="1820.74" y2="1552.04" gradientTransform="matrix(-1, 0, 0, 1, 3398.5, 0)" xlink:href="#linear-gradient-7"/><linearGradient id="linear-gradient-77" x1="1812.21" y1="1199.13" x2="1867.33" y2="1199.13" gradientTransform="matrix(-1, 0, 0, 1, 3398.5, 0)" xlink:href="#linear-gradient-19"/><linearGradient id="linear-gradient-78" x1="1879.13" y1="1435.67" x2="1871.23" y2="1504.58" gradientTransform="matrix(-1, 0, 0, 1, 3398.5, 0)" xlink:href="#linear-gradient-19"/><linearGradient id="linear-gradient-79" x1="1997.82" y1="1467.99" x2="1847.45" y2="1586.06" gradientTransform="matrix(-1, 0, 0, 1, 3398.5, 0)" xlink:href="#linear-gradient-7"/><linearGradient id="linear-gradient-80" x1="1930.57" y1="1483.83" x2="1990.07" y2="1483.83" gradientTransform="matrix(-1, 0, 0, 1, 3398.5, 0)" xlink:href="#linear-gradient-4"/><linearGradient id="linear-gradient-81" x1="1943.44" y1="1443.04" x2="1935.55" y2="1511.95" gradientTransform="matrix(-1, 0, 0, 1, 3398.5, 0)" xlink:href="#linear-gradient-19"/><linearGradient id="linear-gradient-82" x1="2037.25" y1="1127.95" x2="1784.73" y2="1519.8" gradientTransform="matrix(-1, 0, 0, 1, 3398.5, 0)" xlink:href="#linear-gradient-4"/><linearGradient id="linear-gradient-83" x1="1448.18" y1="985.41" x2="1568.19" y2="1216.43" gradientTransform="matrix(1, 0, 0, 1, 0, 0)" xlink:href="#linear-gradient-7"/><linearGradient id="linear-gradient-84" x1="1896.7" y1="989.21" x2="1864.31" y2="1129.18" gradientTransform="matrix(-1, 0, 0, 1, 3398.5, 0)" xlink:href="#linear-gradient-19"/><linearGradient id="linear-gradient-85" x1="-315.98" y1="276.92" x2="-369.46" y2="347.67" gradientTransform="matrix(-0.69, -0.73, -0.73, 0.69, 1491.98, 544.78)" xlink:href="#linear-gradient-19"/><linearGradient id="linear-gradient-86" x1="-356.82" y1="293.91" x2="-292.93" y2="293.91" gradientTransform="matrix(-0.69, -0.73, -0.73, 0.69, 1491.98, 544.78)" xlink:href="#linear-gradient-10"/><linearGradient id="linear-gradient-87" x1="-394.31" y1="332.95" x2="-351.41" y2="288.94" gradientTransform="matrix(-0.69, -0.73, -0.73, 0.69, 1491.98, 544.78)" xlink:href="#linear-gradient-19"/><linearGradient id="_3" x1="1496.83" y1="888.2" x2="1596.83" y2="1183.2" gradientUnits="userSpaceOnUse"><stop offset="0" stop-color="#53d8ff"/><stop offset="0.67" stop-color="#4173fa"/><stop offset="1" stop-color="#3840f7"/></linearGradient><linearGradient id="linear-gradient-88" x1="1512.51" y1="1140.05" x2="1519.51" y2="1258.05" gradientTransform="matrix(1, 0, 0, 1, 0, 0)" xlink:href="#linear-gradient-4"/><linearGradient id="linear-gradient-89" x1="1382.98" y1="1019.28" x2="1502.99" y2="1250.3" gradientTransform="matrix(1, 0, 0, 1, 0, 0)" xlink:href="#linear-gradient-7"/><linearGradient id="linear-gradient-90" x1="2091.62" y1="939.24" x2="2059.01" y2="1045.83" gradientTransform="matrix(-1, 0, 0, 1, 3398.5, 0)" xlink:href="#linear-gradient-19"/><linearGradient id="linear-gradient-91" x1="2104.32" y1="943.12" x2="2071.71" y2="1049.72" gradientTransform="matrix(-1, 0, 0, 1, 3398.5, 0)" xlink:href="#linear-gradient-19"/></defs><title>study</title><g id="Background"><rect class="cls-1" width="2475" height="1650"/></g><g id="Illustration"><path class="cls-2" d="M445.66,220.52C286.24,357.77,523.18,507.6,411.57,585.83s-585,246.07-78.54,492.81,540.65,379.17,875.62,183.84,300-175.74,594.38-74.76,580.1-100.49,462.9-312.39S2084.23,670,2190.3,523.89,2061.52-69.24,1683.41,252.26s-434.16,148.38-614.12,3.67C971.85,177.58,697.59,3.62,445.66,220.52Z"/><path class="cls-3" d="M1911.2,165.38c180.31,113.66-29.1,294.48,94.17,356.41s637.25,273.36,180.15,590.43c-229.4,159.12-492.58,335.34-856,188.5s-325.65-132.3-599.92,8.18S139.49,1289.66,220.26,1064s145.62-228,16.58-357.84,29.1-604.09,456.09-338.5,453.74,86.73,607.67-81.17C1384,195.59,1626.26-14.23,1911.2,165.38Z"/><g class="cls-4"><path class="cls-5" d="M1806.16,1102.8s49.69-250.3,128.71-346.95c70.52-86.26,177.92-201,200.2-224.68a2.47,2.47,0,0,1,4.27,1.67c.19,36.43-6.88,230-171.35,388.13C1785.65,1096.26,1806.16,1102.8,1806.16,1102.8Z"/><path class="cls-6" d="M2108.07,606.1c-8.48,16-17.44,31.69-26.6,47.27s-18.64,31-28.35,46.23Q2024,745.38,1991.71,789q-16.23,21.74-33.35,42.8t-35.44,41.11c-12.26,13.32-24.86,26.33-37.94,38.87s-26.78,24.42-40.94,35.74a2,2,0,1,1-2.5-3.12h0c14.11-11.18,27.69-23,40.84-35.33s25.66-25.31,37.92-38.52,24-26.91,35.5-40.82,22.6-28.12,33.45-42.54q32.46-43.32,61.69-89,14.64-22.77,28.51-46c9.22-15.52,18.24-31.17,26.75-47.06h0a1,1,0,1,1,1.84,1Z"/></g><g class="cls-7"><path class="cls-8" d="M2307.71,760.13c-15.28,68.67-119.12,464.21-476.75,422.49,0,0,6.93-280,469.86-429.68C2304.87,751.63,2308.7,755.65,2307.71,760.13Z"/><path class="cls-9" d="M2258.79,805.83c-11.77,18.92-24.2,37.3-36.93,55.52s-25.89,36.12-39.39,53.77-27.42,35-41.71,52-29,33.76-44.17,50-30.73,32.21-47,47.45-32.84,30.15-50.32,44c-34.74,28-72.36,52.83-113.5,71.15a5.07,5.07,0,1,1-4.13-9.27h0l.1,0c40.19-17.37,77.49-41.38,112.11-68.63,17.42-13.51,34-28.08,50.28-43s31.89-30.6,47.16-46.58,30.07-32.45,44.47-49.25,28.45-33.92,42.11-51.34,27-35.15,39.85-53.15,25.5-36.25,37.37-54.87l0,0a2.15,2.15,0,0,1,3.64,2.29Z"/></g><path class="cls-10" d="M1721.49,1343.11H2279V1231.52H1721.49C1733.42,1231.52,1733.42,1343.11,1721.49,1343.11Z"/><path class="cls-11" d="M2279,1315.19v-51.07c0-18-11-32.6-24.61-32.6H1723.84a19.35,19.35,0,0,1-19.36-19.35h0a5.88,5.88,0,0,1,5.88-5.88h579.9c13.3,0,34.41,20.91,34.41,46.7v71.32c0,24.32-20.5,44-33,44H1713.41a8.93,8.93,0,0,1-8.93-8.93,16.31,16.31,0,0,1,16.31-16.31H2258C2269.6,1343.11,2279,1330.61,2279,1315.19Z"/><path class="cls-12" d="M2263.57,1255.42H1740.79a1,1,0,0,1,0-2h522.78a1,1,0,0,1,0,2Z"/><path class="cls-12" d="M2263.57,1272H1740.79a1,1,0,0,1,0-2h522.78a1,1,0,0,1,0,2Z"/><path class="cls-12" d="M2263.57,1288.55H1740.79a1,1,0,0,1,0-2h522.78a1,1,0,0,1,0,2Z"/><path class="cls-12" d="M2263.57,1305.11H1740.79a1,1,0,0,1,0-2h522.78a1,1,0,0,1,0,2Z"/><path class="cls-12" d="M2263.57,1321.67H1740.79a1,1,0,0,1,0-2h522.78a1,1,0,0,1,0,2Z"/><rect class="cls-13" x="1776.56" y="1084.68" width="501.69" height="121.1" rx="20.09" ry="20.09" transform="translate(4054.8 2290.46) rotate(180)"/><rect class="cls-14" x="2162.61" y="1098.6" width="58.94" height="93.26" rx="7.24" ry="7.24" transform="translate(4384.16 2290.46) rotate(180)"/><rect class="cls-14" x="2131.83" y="1098.6" width="22.11" height="93.26" rx="3.67" ry="3.67" transform="translate(4285.77 2290.46) rotate(180)"/><g class="cls-15"><path class="cls-16" d="M464,85.28c-50.06,79.21-322.57,552.08,75.23,887.5,0,0,259.54-265.12-61.48-886.93A7.93,7.93,0,0,0,464,85.28Z"/><path class="cls-6" d="M474,179.64c-4.67,29.52-8.74,59.16-12.55,88.82s-7.25,59.38-10.36,89.12C444.84,417.07,440,476.69,436.91,536.4s-4.25,119.52-2.25,179.21q1.36,44.77,6,89.3c3.16,29.63,7.5,59.16,14.15,88.13h0a3.84,3.84,0,1,1-7.49,1.72v0c-6.56-29.42-10.75-59.24-13.75-89.11s-4.78-59.85-5.5-89.82c-1.65-60,0-119.91,3.36-179.71s8.68-119.48,15.26-179q4.95-44.62,10.92-89.14c4-29.68,8.25-59.3,13.12-88.86a1.63,1.63,0,1,1,3.21.51Z"/></g><g class="cls-17"><path class="cls-18" d="M192.26,446.43c-24.53,99.46-143.65,684.05,384.85,894.37,0,0,177.49-364.67-370.4-898.52A8.67,8.67,0,0,0,192.26,446.43Z"/><path class="cls-6" d="M234.9,541c3.86,34.17,9.15,68.23,15.11,102.12s12.8,67.66,20.44,101.22c15.31,67.1,33.8,133.52,56.57,198.45s49.88,128.38,83.54,188.29c8.36,15,17.29,29.68,26.58,44.1s19.1,28.51,29.44,42.19a553.44,553.44,0,0,0,68.76,76.15l0,0a3.32,3.32,0,0,1-4.48,4.9h0A559.91,559.91,0,0,1,461.66,1221q-15.57-20.77-29.5-42.69c-9.3-14.57-18.22-29.39-26.56-44.52-33.59-60.45-60.44-124.34-83-189.52S281.8,812.43,266.77,745.13q-11.25-50.48-20-101.47c-5.81-34-11-68.08-14.67-102.41a1.4,1.4,0,0,1,2.79-.3Z"/></g><path class="cls-19" d="M1901.64,1266.8c0,15.41-11.58,28-25.74,28H483.76c-14.16,0-25.74-12.6-25.74-28L446.43,395.6c0-15.4,16.67-45.48,47.21-43.22l1360.55-38.33c17.77-.5,34.94,6.94,47.52,20.6s19.47,32.33,19,51.65Z"/><path class="cls-20" d="M1876.22,1239.93c0,14.59-11,26.53-24.35,26.53H517.33c-13.39,0-24.35-11.94-24.35-26.53L482,449.05c1.29-47.59,39.61-64.7,62.84-63.69l1304-38.1a43.69,43.69,0,0,1,33.39,14.48,52,52,0,0,1,13.39,36.33Z"/><path class="cls-1" d="M507.4,862.15a1.84,1.84,0,0,1-1.84-1.8l-.86-64.15a1.84,1.84,0,0,1,3.67-.05l.86,64.15a1.82,1.82,0,0,1-1.81,1.85Z"/><path class="cls-1" d="M505.28,705a1.85,1.85,0,0,1-1.84-1.81l-3.31-245.65c.07-17.12,5.15-30.61,15.11-40.12,16.51-15.77,41-14.93,42-14.9L973.7,390.33a1.8,1.8,0,0,1,1.89,1.78,1.84,1.84,0,0,1-1.78,1.89L557.28,406.17c-1.12,0-24.11-.82-39.51,13.89-9.2,8.79-13.9,21.39-14,37.44l3.31,245.62A1.83,1.83,0,0,1,505.3,705Z"/><path class="cls-21" d="M551.77,1196.06c1.4-65.37.88-644.21-2.57-694.21s68.06-59.36,177.83-65,1036-27.9,1059.79-30c53.61-4.73,64.7,82.52,59.34,271.93-4,142.3-10.71,376.72-13.78,484.52-.92,32.1-25,57.57-54.5,57.65-222.88.67-1077.09,3.34-1134,5.18C578.48,1228.25,551.22,1222,551.77,1196.06Z"/><rect class="cls-22" x="373.3" y="1290.59" width="1641.27" height="76.55" rx="7.51" ry="7.51"/><path class="cls-23" d="M1665.26,308.73,1634,377.28s17.35,114.53,138,159.16,174.35-13.36,174.35-13.36l38.4-101Z"/><path class="cls-24" d="M1862.52,213.83,1610.11,262c-13,2.48-18,18.68-8.81,28.26,45.07,46.77,147.28,155.45,184.23,216.58a16.35,16.35,0,0,0,19,7.17l258.38-82.58a16.92,16.92,0,0,0,7-27.62c-44.53-47.43-158-166.35-196.39-188.14A16.15,16.15,0,0,0,1862.52,213.83Z"/><path class="cls-25" d="M1845.79,342.61s123.84,95.83,132.15,115.94-19.54,105.7-19.54,105.7c14.15,75.8,10.12,156.38-28.49,195.29,0,0-34.46-101.09-11.62-140.37S1950,563.75,1950,563.75s25-91.65,20.89-105.44C1970.92,458.31,1834.18,346.94,1845.79,342.61Z"/><path class="cls-1" d="M1641,288.36l114.67,137.18,28.67,34.29,7.17,8.58,3.58,4.28a26.14,26.14,0,0,0,3.76,3.68,23.58,23.58,0,0,0,19.86,4.38l86.83-21.22a1.13,1.13,0,1,1,.54,2.19l-86.7,21.81a26.53,26.53,0,0,1-22.38-4.78,29.85,29.85,0,0,1-4.24-4.09l-3.62-4.26-7.22-8.53-28.9-34.1L1637.42,291.36a2.33,2.33,0,0,1,3.56-3Z"/><path class="cls-1" d="M1944.67,608.07l-.29.27-.33.33-.66.67-1.29,1.47c-.85,1-1.61,2.1-2.42,3.14l-2.19,3.36c-.69,1.16-1.31,2.35-2,3.52a37,37,0,0,0-1.79,3.63c-.55,1.23-1.16,2.44-1.67,3.7l-1.41,3.82a37.17,37.17,0,0,0-1.32,3.85l-1.13,3.93a38.37,38.37,0,0,0-1,4c-.55,2.67-1.15,5.34-1.66,8l-1.1,8.14c-.08.68-.2,1.36-.25,2L1924,664l-.27,4.11c-.52,5.48-.25,11-.29,16.49,0,1.38.07,2.76.17,4.13l.28,4.13c.2,2.75.34,5.5.58,8.25.73,5.47,1.34,11,2.16,16.42l3,16.31v0a.8.8,0,0,1-.64,1,.82.82,0,0,1-1-.63l-3.42-16.33c-1-5.48-1.7-11-2.56-16.5-.31-2.77-.52-5.55-.78-8.32l-.37-4.17c-.13-1.39-.27-2.77-.27-4.17-.09-5.58-.49-11.17-.09-16.76l.18-4.19.08-2.1c0-.7.15-1.39.22-2.09l.93-8.36c.46-2.77,1-5.53,1.51-8.3.21-1.39.62-2.74,1-4.11l1.08-4.09c.32-1.38.83-2.7,1.28-4l1.39-4c.5-1.33,1.1-2.61,1.66-3.92a37.67,37.67,0,0,1,1.8-3.87c.67-1.26,1.3-2.54,2-3.78l2.27-3.66c.86-1.17,1.66-2.37,2.58-3.51l1.41-1.69.78-.82.39-.42.48-.44a2.33,2.33,0,0,1,3.2,3.39l0,0Z"/><path class="cls-1" d="M1945.54,643l-.47,5.3-.47,5.87-.87,11.78-1.65,23.57-3.15,47.15a1.27,1.27,0,0,1-2.53-.13l2.09-47.23,1.12-23.61.6-11.82.34-5.91.19-3,.11-1.49c.06-.62.16-1.34.28-2a2.27,2.27,0,0,1,4.49.59Z"/><rect class="cls-26" x="2017.52" y="1416.51" width="11.63" height="125.77"/><path class="cls-27" d="M1975.72,1537.13h95.21a3.32,3.32,0,0,1,3.32,3.32v4.25a0,0,0,0,1,0,0H1972.4a0,0,0,0,1,0,0v-4.25A3.32,3.32,0,0,1,1975.72,1537.13Z"/><rect class="cls-28" x="1961.31" y="1388.33" width="128.07" height="36.32" rx="12.51" ry="12.51"/><path class="cls-29" d="M1937.48,1332.65s-17.29,2.68-36.72,15.66a9.71,9.71,0,0,0-4.27,9.26c2.33,18.43,11.89,78.08,43.44,136.34a14.64,14.64,0,0,1,1.4,10.06l-5.48,25.51-10.16,9.52h26.18l17.43-47.16-7.46-2.36a14.1,14.1,0,0,1-9.84-13.2l-.88-50.6c.75-22.54-13.82-38.1-13.82-38.1l41.81-2Z"/><path class="cls-30" d="M1915.47,1543.61c-2.39,3.12,25.66,7.23,39.83.41,0,0,19.64-34.17,19.64-51.77,0,0-1.56-3.58-13.1-2.77,0,0-6.59,40.46-13.55,45s-19.48.46-19.48.46S1919,1539,1915.47,1543.61Z"/><path class="cls-31" d="M1973.82,1388.33c-.23-.39-45-5.39-45-5.39s1.46,13.62-3.12,32.36-70.34,100-70.34,100l6.89,21.86c-21.31,7.43-42.28,8.61-62.92,3.78l42.73-25.64s40-136.28,64.49-160.6l44.89-15.53Z"/><path class="cls-32" d="M2074.26,1309s25.81,38.38,27.92,55.89-7.06,24.62-34.14,25.79-99.36,1.15-99.36,1.15L1907,1339.14s45-16,56.65-20.58S2074.26,1309,2074.26,1309Z"/><path class="cls-33" d="M1859.64,1529.77s7.42,7.19,2.41,15.19c0,0-58.81,10.42-74.77,5.69,0,0,3.31-7.56,21.29-16.18l-1.33,1a2.15,2.15,0,0,0,1.42,3.85C1820.51,1538.67,1845,1536.5,1859.64,1529.77Z"/><path class="cls-34" d="M2004.48,1304s-30-28.62-44.85-47.57a40.25,40.25,0,0,1-6.81-36.19c6.76-22.75,18.76-46.32,19.85-50,1.68-5.63,35.38-5.39,35.38-5.39s66.3,43,92.35,115.92l-29.26,9.11s-17.31-29-34.41-47.51c0,0,29.59,39.1,30.64,55.11Z"/><path class="cls-35" d="M1968.6,1138.79c.35,1.17,9.15,30.32,9.83,30.93s19.29,1.6,28-4.38l-14.85-31.09Z"/><path class="cls-36" d="M1983.05,1077.55s-15.88,6.71-26.68,29.65-2.73,33.53,7.4,35,25.27,1.23,41.28-13.59S2003.68,1069.61,1983.05,1077.55Z"/><path class="cls-37" d="M1994.29,1116.35s12-33.56-17.78-34l-7,4.89s-10.92-18.6,7-27.49,44.66-1,52.28,23.17,3.17,39.74-9.52,51.29-17.92-1.55-17.92-1.55,6.91-10.8,4.1-16.58-9.3,1.19-9.3,1.19Z"/><path class="cls-38" d="M1997.62,1120.09s6.06-17.29,14.14-10.4-6.57,16-12.3,18.91Z"/><path class="cls-39" d="M1943.26,1306.07l22.07-21.28,30.55,12.9s30.4,4.71,47.8,0l17.4-4.71,39.32-12.24,6.17,17.45a10.51,10.51,0,0,1-3.84,12.08,69.22,69.22,0,0,1-9.93,6.18c-5.17,2.27-127.64-1.56-127.64-1.56Z"/><path class="cls-40" d="M2026.46,1086.75c-3.83-3.91-1.34-10.52,4.07-11.36,17.44-2.72,44,.06,55.21,37.4,12.58,42.07,20.78,63.1,29.18,66.79,5.53,2.42,5.88,10.09.38,12.56-4.07,1.82-9.89,2.47-18.22.64C2032.79,1178.64,2048.9,1109.67,2026.46,1086.75Z"/><path class="cls-41" d="M2026.81,1316.1h-.3l-128.07-.14a5.74,5.74,0,0,1,0-11.47l128.08.14a5.73,5.73,0,0,1,.28,11.46Z"/><path class="cls-42" d="M1783.31,1199.82H1890a20.33,20.33,0,0,1,18.39,11.66l49.3,104.55H1825.12a12.34,12.34,0,0,1-11.49-7.81l-38.24-96.75A8.52,8.52,0,0,1,1783.31,1199.82Z"/><path class="cls-43" d="M1858.45,1253.43c2.31,7.18.61,14.15-3.81,15.58s-9.87-3.25-12.18-10.43-.61-14.16,3.81-15.58S1856.14,1246.25,1858.45,1253.43Z"/><path class="cls-44" d="M2205.81,1320.78a4.73,4.73,0,0,0-1.11-4.09,5.45,5.45,0,0,0-4.08-1.8H1666.18a6.21,6.21,0,0,0-5.12,2.62,5.4,5.4,0,0,0-.4,5.47l5.79,11.75a8.16,8.16,0,0,0,7.36,4.41H2197a6,6,0,0,0,6-4.66Z"/><path class="cls-45" d="M1696.14,1568.42a4.49,4.49,0,0,1-1.85-.39,4.84,4.84,0,0,1-2.46-6.3l98.36-234a4.66,4.66,0,0,1,6.17-2.51,4.83,4.83,0,0,1,2.45,6.3l-98.36,234A4.69,4.69,0,0,1,1696.14,1568.42Z"/><path class="cls-46" d="M1807,1568.42a4.67,4.67,0,0,1-4.31-2.9l-98.37-234a4.84,4.84,0,0,1,2.46-6.3,4.65,4.65,0,0,1,6.16,2.51l98.36,234a4.83,4.83,0,0,1-2.45,6.3A4.49,4.49,0,0,1,1807,1568.42Z"/><path class="cls-47" d="M2083.48,1568.42a4.49,4.49,0,0,1-1.85-.39,4.84,4.84,0,0,1-2.46-6.3l98.37-234a4.65,4.65,0,0,1,6.16-2.51,4.83,4.83,0,0,1,2.45,6.3l-98.36,234A4.69,4.69,0,0,1,2083.48,1568.42Z"/><path class="cls-48" d="M2194.29,1568.42a4.67,4.67,0,0,1-4.31-2.9l-98.36-234a4.83,4.83,0,0,1,2.45-6.3,4.65,4.65,0,0,1,6.16,2.51l98.37,234a4.84,4.84,0,0,1-2.46,6.3A4.49,4.49,0,0,1,2194.29,1568.42Z"/><path class="cls-49" d="M1122,1069.87V782.43h50.34v287.44Z"/><path class="cls-50" d="M1321.36,1069.87h-53.28V829.42H1213v-47h163.39v47h-55.05Z"/><g class="cls-51"><path class="cls-1" d="M605.52,936.9a4.41,4.41,0,0,1-4.23-3.17c-.67-2.29-1.32-4.6-1.92-6.92a4.41,4.41,0,0,1,8.53-2.23q.87,3.36,1.85,6.67a4.41,4.41,0,0,1-4.23,5.65Z"/><path class="cls-1" d="M598.78,907.23a4.41,4.41,0,0,1-4.34-3.7c-.78-4.81-1.43-9.7-1.92-14.54a4.41,4.41,0,0,1,8.77-.89c.48,4.67,1.1,9.38,1.85,14a4.4,4.4,0,0,1-3.65,5A4.17,4.17,0,0,1,598.78,907.23Zm-3.13-37.63a4.41,4.41,0,0,1-4.41-4.38v-1.59c0-4.31.11-8.7.33-13a4.41,4.41,0,1,1,8.81.45c-.22,4.2-.33,8.44-.33,12.6v1.54a4.41,4.41,0,0,1-4.38,4.43Zm2.63-37.66a4.58,4.58,0,0,1-.64,0,4.42,4.42,0,0,1-3.73-5c.71-4.83,1.57-9.68,2.55-14.43a4.41,4.41,0,1,1,8.63,1.79c-1,4.58-1.77,9.26-2.45,13.91A4.42,4.42,0,0,1,598.28,831.94Zm8.32-36.81a4.51,4.51,0,0,1-1.3-.2,4.4,4.4,0,0,1-2.91-5.51c1.43-4.64,3-9.31,4.73-13.87a4.41,4.41,0,0,1,8.26,3.09c-1.65,4.41-3.19,8.91-4.57,13.38A4.41,4.41,0,0,1,606.6,795.13ZM620.5,760a4.3,4.3,0,0,1-1.93-.45,4.4,4.4,0,0,1-2-5.89c2.14-4.38,4.44-8.74,6.83-13a4.41,4.41,0,0,1,7.68,4.33c-2.31,4.1-4.52,8.31-6.59,12.53A4.4,4.4,0,0,1,620.5,760Zm19.17-32.55a4.4,4.4,0,0,1-3.61-6.93c2.79-4,5.73-8,8.74-11.77a4.41,4.41,0,0,1,6.92,5.46c-2.91,3.68-5.74,7.5-8.43,11.36A4.4,4.4,0,0,1,639.67,727.48Zm23.93-29.21a4.4,4.4,0,0,1-3.19-7.45c3.37-3.52,6.88-7,10.44-10.3a4.41,4.41,0,1,1,6,6.46c-3.43,3.19-6.82,6.53-10.07,9.93A4.39,4.39,0,0,1,663.6,698.27Zm28.11-25.21a4.41,4.41,0,0,1-2.69-7.91c3.86-3,7.86-5.84,11.87-8.57a4.41,4.41,0,1,1,5,7.29c-3.88,2.63-7.74,5.42-11.46,8.28A4.4,4.4,0,0,1,691.71,673.06Zm31.61-20.63a4.41,4.41,0,0,1-2.12-8.27c4.26-2.34,8.65-4.57,13-6.66a4.41,4.41,0,0,1,3.78,8c-4.24,2-8.47,4.17-12.58,6.42A4.37,4.37,0,0,1,723.32,652.43Zm231.53-2.15a4.39,4.39,0,0,1-2-.5c-4.16-2.18-8.43-4.26-12.71-6.19a4.41,4.41,0,1,1,3.62-8c4.44,2,8.87,4.16,13.18,6.42a4.41,4.41,0,0,1-2,8.31ZM757.71,636.9a4.41,4.41,0,0,1-1.5-8.55c4.57-1.66,9.25-3.19,13.9-4.57a4.41,4.41,0,1,1,2.5,8.45c-4.48,1.33-9,2.81-13.4,4.41A4.39,4.39,0,0,1,757.71,636.9Zm162.43-1.49a4.35,4.35,0,0,1-1.41-.24c-4.45-1.51-9-2.9-13.52-4.15a4.41,4.41,0,0,1,2.34-8.5c4.69,1.29,9.4,2.74,14,4.31a4.41,4.41,0,0,1-1.42,8.58Zm-126.07-8.55a4.41,4.41,0,0,1-.84-8.74c4.78-.93,9.65-1.73,14.46-2.37a4.41,4.41,0,0,1,1.17,8.74c-4.64.62-9.34,1.39-14,2.28A4,4,0,0,1,794.07,626.86Zm89.49-.79a5,5,0,0,1-.76-.07c-4.62-.81-9.33-1.49-14-2a4.4,4.4,0,1,1,1-8.75c4.84.55,9.72,1.26,14.5,2.09a4.41,4.41,0,0,1-.75,8.76Zm-52-3.53a4.41,4.41,0,0,1-.16-8.81c4.84-.18,9.75-.23,14.65-.13a4.41,4.41,0,0,1-.18,8.82c-4.73-.1-9.47-.06-14.14.12Z"/><path class="cls-1" d="M981,666.15a4.33,4.33,0,0,1-2.51-.79c-1.89-1.31-3.81-2.6-5.74-3.87a4.41,4.41,0,0,1,4.82-7.38q3,2,5.95,4a4.4,4.4,0,0,1-2.52,8Z"/></g><g class="cls-51"><path class="cls-1" d="M1082.89,825.75a4.42,4.42,0,0,1-4.34-3.66c-.39-2.28-.81-4.54-1.27-6.8a4.41,4.41,0,1,1,8.64-1.75q.7,3.51,1.32,7.05a4.39,4.39,0,0,1-3.59,5.09A3.91,3.91,0,0,1,1082.89,825.75Z"/><path class="cls-1" d="M836.75,1113.16h-.09c-4.26-.08-8.58-.27-12.84-.56l-1.56-.12a4.41,4.41,0,1,1,.66-8.79l1.51.11c4.11.29,8.28.47,12.39.55a4.41,4.41,0,0,1-.07,8.81Zm23-.65a4.41,4.41,0,0,1-.32-8.8c4.6-.35,9.26-.83,13.83-1.44a4.4,4.4,0,1,1,1.17,8.73c-4.74.64-9.57,1.14-14.34,1.5Zm-60-2.8a3.78,3.78,0,0,1-.74-.07c-4.73-.8-9.49-1.75-14.14-2.82a4.41,4.41,0,1,1,2-8.59c4.49,1,9.08,2,13.65,2.72a4.41,4.41,0,0,1-.74,8.76Zm96.73-2.79a4.41,4.41,0,0,1-1-8.7c4.5-1,9-2.23,13.45-3.53a4.41,4.41,0,1,1,2.48,8.46c-4.59,1.35-9.28,2.58-13.94,3.66A4.32,4.32,0,0,1,896.47,1106.92Zm-132.79-6.19a4.48,4.48,0,0,1-1.39-.22c-4.55-1.51-9.11-3.17-13.56-4.93a4.41,4.41,0,0,1,3.26-8.2c4.29,1.71,8.69,3.31,13.07,4.76a4.41,4.41,0,0,1-1.38,8.59Zm168.24-4.92a4.41,4.41,0,0,1-1.63-8.5c4.28-1.71,8.57-3.57,12.74-5.52a4.41,4.41,0,1,1,3.74,8c-4.33,2-8.78,4-13.21,5.73A4.5,4.5,0,0,1,931.92,1095.81Zm-202.52-9.42a4.41,4.41,0,0,1-2-.49c-4.26-2.18-8.52-4.51-12.64-6.93a4.41,4.41,0,0,1,4.46-7.61c4,2.34,8.08,4.59,12.2,6.69a4.41,4.41,0,0,1-2,8.34Zm235.87-6.92a4.41,4.41,0,0,1-2.24-8.21c4-2.34,8-4.83,11.78-7.39a4.41,4.41,0,0,1,4.9,7.33c-4,2.65-8.08,5.23-12.21,7.66A4.41,4.41,0,0,1,965.27,1079.47Zm30.51-21.19a4.41,4.41,0,0,1-2.79-7.83c3.59-2.91,7.14-6,10.55-9.08a4.41,4.41,0,0,1,5.94,6.52c-3.53,3.22-7.21,6.38-10.92,9.4A4.39,4.39,0,0,1,995.78,1058.28Zm27-25.53a4.41,4.41,0,0,1-3.26-7.38c3.1-3.41,6.15-7,9.06-10.56a4.41,4.41,0,0,1,6.85,5.55c-3,3.72-6.17,7.41-9.39,10.95A4.43,4.43,0,0,1,1022.77,1032.75Zm22.84-29.3a4.41,4.41,0,0,1-3.67-6.85c2.56-3.85,5-7.82,7.37-11.82a4.41,4.41,0,0,1,7.61,4.45c-2.42,4.14-5,8.26-7.63,12.25A4.43,4.43,0,0,1,1045.61,1003.45ZM1063.77,971a4.36,4.36,0,0,1-1.85-.41,4.42,4.42,0,0,1-2.15-5.86c2-4.19,3.8-8.5,5.5-12.8a4.4,4.4,0,1,1,8.19,3.24c-1.76,4.46-3.67,8.93-5.69,13.27A4.41,4.41,0,0,1,1063.77,971Zm13-34.82a4.72,4.72,0,0,1-1.22-.17,4.41,4.41,0,0,1-3-5.46c1.28-4.44,2.45-9,3.47-13.47a4.41,4.41,0,0,1,8.6,1.95c-1.06,4.67-2.28,9.36-3.6,14A4.42,4.42,0,0,1,1076.79,936.2Zm7.59-36.36c-.19,0-.38,0-.58,0a4.42,4.42,0,0,1-3.8-4.94c.6-4.58,1.08-9.24,1.41-13.85a4.41,4.41,0,0,1,8.8.65c-.35,4.77-.85,9.6-1.47,14.34A4.4,4.4,0,0,1,1084.38,899.84Zm2-37.1a4.41,4.41,0,0,1-4.41-4.33c-.09-4.61-.31-9.29-.67-13.89a4.41,4.41,0,1,1,8.79-.68c.37,4.77.61,9.62.7,14.41a4.42,4.42,0,0,1-4.33,4.49Z"/><path class="cls-1" d="M697.57,1066.92a4.44,4.44,0,0,1-2.58-.84c-1.94-1.4-3.85-2.83-5.75-4.28a4.41,4.41,0,1,1,5.36-7q2.74,2.1,5.56,4.13a4.41,4.41,0,0,1-2.59,8Z"/></g><path class="cls-52" d="M708.54,997.47a3,3,0,0,0,3.3.9L745.48,986A156.45,156.45,0,0,0,790,1010l8.21,34.87a3,3,0,0,0,2.57,2.26l42.78,4.33a2.94,2.94,0,0,0,3-1.69l15-32.52A156.07,156.07,0,0,0,910,1002.67l30.48,18.87a3,3,0,0,0,3.42-.23l33.31-27.18a2.93,2.93,0,0,0,.9-3.3l-12.37-33.65a156,156,0,0,0,24-44.54l34.87-8.21a3,3,0,0,0,2.26-2.57l4.33-42.78a2.94,2.94,0,0,0-1.69-3l-32.52-15a156.21,156.21,0,0,0-14.57-48.46l18.87-30.48a3,3,0,0,0-.22-3.41l-27.19-33.31a2.94,2.94,0,0,0-3.3-.91L937,736.89a156.2,156.2,0,0,0-44.55-24L884.21,678a2.93,2.93,0,0,0-2.57-2.25l-42.78-4.34a3,3,0,0,0-3,1.7l-15,32.52a156.07,156.07,0,0,0-48.45,14.57l-30.48-18.87a3,3,0,0,0-3.42.22L705.2,728.76a2.94,2.94,0,0,0-.9,3.3l12.37,33.64a155.94,155.94,0,0,0-24,44.55l-34.87,8.2a3,3,0,0,0-2.26,2.57l-4.33,42.78a3,3,0,0,0,1.69,3l32.52,15A156.15,156.15,0,0,0,700,930.26l-18.87,30.48a3,3,0,0,0,.22,3.41Z"/><path class="cls-1" d="M841.14,903.16a41.8,41.8,0,1,1,6.17-.46A41.4,41.4,0,0,1,841.14,903.16Zm.11-76.38a33.7,33.7,0,0,0-5.08.38,34.59,34.59,0,1,0,5.08-.38Z"/><path class="cls-1" d="M842,966.33a104.65,104.65,0,0,1-10.71-.54,106.45,106.45,0,0,1-15.8-2.81l-.12,0-.68-.18-.1,0h0l-.08,0-.33-.09h0l-.13,0h0l-1-.27-.34-.1c-.71-.2-1.42-.42-2.12-.63l-1.21-.39a1.76,1.76,0,1,1,1.09-3.35,102.56,102.56,0,0,0,21.25,4.45,102,102,0,0,0,111.76-91.19q.52-5.24.52-10.38a102,102,0,0,0-203.47-10.18,99.63,99.63,0,0,0-.52,10.35,101.68,101.68,0,0,0,9.62,43.21,1.82,1.82,0,0,1,.17.75,1.76,1.76,0,0,1-3.36.75,105.06,105.06,0,0,1-10-44.71,106.68,106.68,0,0,1,.54-10.71,105.52,105.52,0,0,1,210.51,10.54q0,5.32-.54,10.73A105.68,105.68,0,0,1,842,966.33Z"/><path class="cls-53" d="M1095.1,648.36l18.24-8.4a87.35,87.35,0,0,0,25.94,11.42l6.14,19.11a1.65,1.65,0,0,0,1.53,1.15l24.09.52a1.65,1.65,0,0,0,1.58-1.08l7-18.83A87.62,87.62,0,0,0,1206,642l17.86,9.19a1.66,1.66,0,0,0,1.9-.28l17.4-16.66a1.66,1.66,0,0,0,.36-1.88l-8.41-18.25a87.24,87.24,0,0,0,11.42-25.94l19.11-6.13a1.68,1.68,0,0,0,1.15-1.54l.52-24.09a1.64,1.64,0,0,0-1.08-1.58l-18.83-6.95a87.36,87.36,0,0,0-10.29-26.42l9.19-17.86a1.66,1.66,0,0,0-.28-1.9l-16.66-17.4a1.65,1.65,0,0,0-1.88-.35l-18.25,8.4a87.49,87.49,0,0,0-25.94-11.42l-6.13-19.11a1.68,1.68,0,0,0-1.54-1.15l-24.09-.52a1.65,1.65,0,0,0-1.58,1.08L1143,480a87.62,87.62,0,0,0-26.42,10.29l-17.86-9.19a1.66,1.66,0,0,0-1.9.28l-17.4,16.66a1.67,1.67,0,0,0-.35,1.89l8.4,18.24A87.75,87.75,0,0,0,1076,544.14l-19.11,6.14a1.65,1.65,0,0,0-1.15,1.53l-.52,24.09a1.65,1.65,0,0,0,1.08,1.58l18.83,6.95a87.62,87.62,0,0,0,10.29,26.42l-9.19,17.86a1.66,1.66,0,0,0,.28,1.9l16.66,17.4A1.65,1.65,0,0,0,1095.1,648.36Z"/><path class="cls-12" d="M1161.24,589.31a23.21,23.21,0,1,1,5.22-.6A23,23,0,0,1,1161.24,589.31Zm0-42.8a19.63,19.63,0,1,0,19.13,15.24A19.66,19.66,0,0,0,1161.28,546.51Z"/><g class="cls-51"><path class="cls-1" d="M1053.23,641.36a4.42,4.42,0,0,1-3.69-2c-1.32-2-2.61-4.1-3.83-6.2a4.41,4.41,0,0,1,7.63-4.43c1.14,2,2.34,3.91,3.57,5.8a4.4,4.4,0,0,1-1.27,6.1A4.35,4.35,0,0,1,1053.23,641.36Z"/><path class="cls-1" d="M1040.23,615.63a4.41,4.41,0,0,1-4.13-2.87,133.9,133.9,0,0,1-4.15-13.25,4.41,4.41,0,1,1,8.54-2.2,125.15,125.15,0,0,0,3.88,12.38,4.42,4.42,0,0,1-2.6,5.67A4.63,4.63,0,0,1,1040.23,615.63Zm-7.68-34.31a4.41,4.41,0,0,1-4.38-4c-.32-3.72-.48-7.51-.48-11.25q0-1.32,0-2.64a4.34,4.34,0,0,1,4.49-4.31,4.4,4.4,0,0,1,4.32,4.49c0,.82,0,1.64,0,2.46,0,3.49.15,7,.44,10.5a4.41,4.41,0,0,1-4,4.77Zm1.86-35.11a4.76,4.76,0,0,1-.83-.08,4.41,4.41,0,0,1-3.5-5.16,133.43,133.43,0,0,1,3.33-13.49,4.41,4.41,0,0,1,8.44,2.56,125,125,0,0,0-3.11,12.59A4.42,4.42,0,0,1,1034.41,546.21Zm11.28-33.3a4.31,4.31,0,0,1-2-.47,4.41,4.41,0,0,1-2-5.91,136.73,136.73,0,0,1,6.84-12.08,4.41,4.41,0,1,1,7.44,4.73,129.3,129.3,0,0,0-6.39,11.29A4.4,4.4,0,0,1,1045.69,512.91Zm19.83-29a4.41,4.41,0,0,1-3.27-7.36,131.85,131.85,0,0,1,9.83-9.81,4.41,4.41,0,0,1,5.89,6.56,125.92,125.92,0,0,0-9.18,9.16A4.41,4.41,0,0,1,1065.52,483.87Zm26.9-22.63a4.4,4.4,0,0,1-2.36-8.13,134.52,134.52,0,0,1,12.13-6.78,4.41,4.41,0,1,1,3.89,7.91,122.91,122.91,0,0,0-11.32,6.33A4.45,4.45,0,0,1,1092.42,461.24Zm32-14.48a4.41,4.41,0,0,1-1.25-8.64c2.69-.8,5.45-1.52,8.21-2.16q2.64-.6,5.28-1.1a4.41,4.41,0,1,1,1.63,8.66c-1.64.31-3.29.66-4.94,1-2.58.59-5.16,1.27-7.68,2A4.17,4.17,0,0,1,1124.44,446.76Zm48.18-4.9-.39,0a124.54,124.54,0,0,0-13-.46,4.41,4.41,0,1,1-.16-8.81,131.39,131.39,0,0,1,13.89.49,4.41,4.41,0,0,1-.38,8.8Z"/><path class="cls-1" d="M1200.94,447.61a4.59,4.59,0,0,1-1.36-.21c-2.15-.7-4.35-1.34-6.53-1.92a4.41,4.41,0,1,1,2.25-8.52c2.34.61,4.69,1.3,7,2.05a4.41,4.41,0,0,1-1.35,8.6Z"/></g><g class="cls-51"><path class="cls-1" d="M1278.11,515.41a4.4,4.4,0,0,1-4-2.53c-1-2.05-2-4.1-3.07-6.08a4.41,4.41,0,0,1,7.76-4.18c1.14,2.12,2.25,4.31,3.28,6.51a4.4,4.4,0,0,1-4,6.28Z"/><path class="cls-1" d="M1161.22,699.73a133.94,133.94,0,0,1-15.29-.87,4.41,4.41,0,1,1,1-8.76,125.14,125.14,0,0,0,14.22.82h.19a4.41,4.41,0,1,1,0,8.81h-.14Zm24.29-2.32a4.41,4.41,0,0,1-.83-8.74c1.51-.28,3-.6,4.51-.94,3.2-.74,6.39-1.6,9.5-2.57a4.41,4.41,0,1,1,2.63,8.41c-3.32,1-6.74,2-10.15,2.75-1.61.37-3.22.71-4.83,1A4,4,0,0,1,1185.51,697.41Zm36.87-13a4.41,4.41,0,0,1-2.09-8.29,125.08,125.08,0,0,0,12.3-7.55,4.41,4.41,0,0,1,5,7.24,135.53,135.53,0,0,1-13.18,8.08A4.41,4.41,0,0,1,1222.38,684.38Zm31.23-23.49a4.41,4.41,0,0,1-3.15-7.49,127.57,127.57,0,0,0,9.47-10.89,4.41,4.41,0,0,1,7,5.39,132.32,132.32,0,0,1-10.14,11.66A4.41,4.41,0,0,1,1253.61,660.89Zm22.78-31.77a4.4,4.4,0,0,1-3.92-6.41,125,125,0,0,0,5.8-13.21,4.41,4.41,0,1,1,8.26,3.07,135.73,135.73,0,0,1-6.21,14.15A4.41,4.41,0,0,1,1276.39,629.12ZM1288.68,592a4.71,4.71,0,0,1-.74-.06,4.41,4.41,0,0,1-3.61-5.08,123.44,123.44,0,0,0,1.57-14.35,4.36,4.36,0,0,1,4.62-4.18,4.41,4.41,0,0,1,4.19,4.62,132.22,132.22,0,0,1-1.69,15.38A4.4,4.4,0,0,1,1288.68,592Zm.55-39.1a4.39,4.39,0,0,1-4.36-3.8c-.51-3.63-1.18-7.28-2-10.87q-.39-1.66-.81-3.3a4.41,4.41,0,1,1,8.54-2.2c.3,1.17.59,2.35.86,3.53.88,3.83,1.6,7.75,2.14,11.63a4.41,4.41,0,0,1-3.76,5A4.26,4.26,0,0,1,1289.23,552.9Z"/><path class="cls-1" d="M1122.64,693.81a4.65,4.65,0,0,1-1.32-.2c-2.31-.73-4.63-1.53-6.9-2.38a4.41,4.41,0,1,1,3.11-8.25c2.11.79,4.28,1.54,6.43,2.22a4.41,4.41,0,0,1-1.32,8.61Z"/></g><path class="cls-12" d="M1161.32,626H1160a60.87,60.87,0,0,1-12.65-1.62,1.78,1.78,0,0,1-1.36-1.72,2,2,0,0,1,0-.41,1.77,1.77,0,0,1,2.13-1.3,57.11,57.11,0,0,0,11.9,1.52,56.38,56.38,0,0,0,57.58-55.14c0-.41,0-.82,0-1.23a56.37,56.37,0,0,0-112.73-1.21c0,.41,0,.82,0,1.23a56.3,56.3,0,0,0,7.37,27.88,1.76,1.76,0,1,1-3.06,1.75,59.75,59.75,0,0,1-7.84-29.63c0-.43,0-.87,0-1.3a59.9,59.9,0,0,1,119.78,1.28c0,.43,0,.87,0,1.3A59.91,59.91,0,0,1,1161.32,626Z"/><g class="cls-51"><path class="cls-1" d="M1327.17,673.46a4.41,4.41,0,0,1-4.23-3.17c-.67-2.3-1.31-4.65-1.89-7a4.41,4.41,0,1,1,8.56-2.12c.55,2.22,1.15,4.45,1.79,6.63a4.41,4.41,0,0,1-4.23,5.65Z"/><path class="cls-1" d="M1321.42,644.24a4.42,4.42,0,0,1-4.38-4c-.48-4.74-.78-9.57-.86-14.36a4.41,4.41,0,0,1,8.82-.15c.08,4.53.35,9.11.81,13.6a4.41,4.41,0,0,1-3.93,4.84Zm.33-36.69a4.71,4.71,0,0,1-.53,0,4.4,4.4,0,0,1-3.85-4.9c.56-4.75,1.34-9.52,2.31-14.19a4.41,4.41,0,0,1,8.63,1.79c-.91,4.42-1.65,8.94-2.19,13.45A4.41,4.41,0,0,1,1321.75,607.55Zm8.38-35.71a4.28,4.28,0,0,1-1.48-.26A4.4,4.4,0,0,1,1326,566c1.61-4.51,3.43-9,5.41-13.32a4.41,4.41,0,1,1,8,3.66c-1.88,4.11-3.6,8.35-5.13,12.62A4.4,4.4,0,0,1,1330.13,571.84Zm16.15-33a4.41,4.41,0,0,1-3.71-6.78c2.57-4,5.35-8,8.25-11.78a4.41,4.41,0,1,1,7,5.36c-2.75,3.59-5.38,7.34-7.82,11.16A4.39,4.39,0,0,1,1346.28,538.89Zm23.08-28.53a4.41,4.41,0,0,1-3.09-7.55c3.39-3.35,7-6.6,10.65-9.66a4.41,4.41,0,0,1,5.64,6.78c-3.48,2.9-6.88,6-10.1,9.15A4.4,4.4,0,0,1,1369.36,510.36Zm28.81-22.73a4.41,4.41,0,0,1-2.33-8.15c4.05-2.52,8.27-4.9,12.52-7.07a4.41,4.41,0,0,1,4,7.86c-4,2.05-8,4.31-11.86,6.7A4.41,4.41,0,0,1,1398.17,487.63Zm154.35-10.16a4.51,4.51,0,0,1-1.81-.39c-4.12-1.87-8.38-3.58-12.65-5.08a4.41,4.41,0,1,1,2.93-8.31c4.51,1.58,9,3.39,13.35,5.35a4.41,4.41,0,0,1-1.82,8.43Zm-121.25-5.61a4.41,4.41,0,0,1-1.43-8.58c4.51-1.56,9.15-2.94,13.77-4.1a4.41,4.41,0,1,1,2.15,8.55c-4.38,1.1-8.77,2.41-13,3.89A4.48,4.48,0,0,1,1431.27,471.86Zm86.33-5.66a5.12,5.12,0,0,1-.87-.08c-4.44-.9-9-1.62-13.47-2.14a4.4,4.4,0,1,1,1-8.75c4.75.54,9.53,1.3,14.2,2.24a4.41,4.41,0,0,1-.87,8.73Zm-50.54-2.34a4.41,4.41,0,0,1-.46-8.79c4.73-.51,9.56-.82,14.34-.93h.1a4.41,4.41,0,0,1,.1,8.81c-4.54.1-9.11.4-13.6.88A3.87,3.87,0,0,1,1467.06,463.86Z"/><path class="cls-1" d="M1578.52,492.22a4.43,4.43,0,0,1-2.52-.78c-1.86-1.3-3.78-2.58-5.71-3.8a4.41,4.41,0,0,1,4.72-7.45c2,1.29,4.06,2.64,6,4a4.4,4.4,0,0,1-2.52,8Z"/></g><g class="cls-51"><path class="cls-1" d="M1647.09,601.36a4.42,4.42,0,0,1-4.35-3.72c-.35-2.27-.76-4.54-1.21-6.75a4.41,4.41,0,0,1,8.64-1.76c.47,2.34.9,4.74,1.28,7.13a4.41,4.41,0,0,1-3.66,5A4.14,4.14,0,0,1,1647.09,601.36Z"/><path class="cls-1" d="M1485.06,791.47c-1.87,0-3.82,0-5.75-.1a4.41,4.41,0,0,1,.14-8.81h.15c1.81.06,3.61.09,5.41.09h0c2.64,0,5.31-.06,8-.2a4.41,4.41,0,0,1,.44,8.81C1490.67,791.4,1487.84,791.47,1485.06,791.47Zm-27.87-2.34a4.71,4.71,0,0,1-.74-.06c-4.64-.79-9.29-1.78-13.84-3a4.41,4.41,0,0,1,2.2-8.54c4.31,1.11,8.72,2,13.11,2.8a4.41,4.41,0,0,1-.73,8.75Zm58.26-.5a4.41,4.41,0,0,1-.81-8.74c4.37-.83,8.76-1.85,13-3a4.41,4.41,0,0,1,2.36,8.5c-4.52,1.26-9.16,2.34-13.78,3.21A4.56,4.56,0,0,1,1515.45,788.63Zm-93-9.42a4.53,4.53,0,0,1-1.68-.33c-4.34-1.78-8.67-3.78-12.85-5.92a4.41,4.41,0,0,1,4-7.84c4,2,8.06,3.91,12.18,5.6a4.41,4.41,0,0,1-1.67,8.49ZM1550,778.05a4.41,4.41,0,0,1-1.75-8.46c4.08-1.76,8.14-3.72,12.06-5.83a4.41,4.41,0,1,1,4.17,7.77c-4.14,2.22-8.43,4.29-12.73,6.15A4.37,4.37,0,0,1,1550,778.05Zm31.35-17.89a4.4,4.4,0,0,1-2.59-8c3.6-2.62,7.14-5.42,10.51-8.32a4.41,4.41,0,0,1,5.76,6.67c-3.56,3.07-7.29,6-11.09,8.78A4.4,4.4,0,0,1,1581.3,760.16ZM1608,735.89a4.41,4.41,0,0,1-3.3-7.33c3-3.34,5.79-6.84,8.45-10.41a4.41,4.41,0,1,1,7.07,5.26c-2.81,3.77-5.81,7.46-8.92,11A4.41,4.41,0,0,1,1608,735.89Zm20.79-29.52a4.42,4.42,0,0,1-3.86-6.54c2.15-3.9,4.16-7.94,6-12a4.41,4.41,0,0,1,8,3.59c-1.91,4.3-4,8.56-6.3,12.68A4.42,4.42,0,0,1,1628.81,706.37ZM1642.63,673a4.35,4.35,0,0,1-1.23-.17,4.41,4.41,0,0,1-3-5.46c1.24-4.27,2.31-8.65,3.18-13a4.41,4.41,0,1,1,8.65,1.73c-.93,4.61-2.06,9.23-3.36,13.74A4.41,4.41,0,0,1,1642.63,673Zm6.16-35.57h-.28a4.42,4.42,0,0,1-4.12-4.68c.21-3.36.32-6.76.32-10.1,0-1.11,0-2.21,0-3.3a4.42,4.42,0,0,1,4.31-4.51h.1a4.42,4.42,0,0,1,4.41,4.32c0,1.16,0,2.32,0,3.49,0,3.52-.11,7.11-.33,10.65A4.41,4.41,0,0,1,1648.79,637.42Z"/><path class="cls-1" d="M1390.69,761.84a4.41,4.41,0,0,1-2.53-.8c-2-1.38-3.94-2.82-5.83-4.28a4.41,4.41,0,0,1,5.36-7c1.8,1.38,3.66,2.75,5.53,4.06a4.41,4.41,0,0,1-2.53,8Z"/></g><path class="cls-54" d="M1396.13,712.54a2,2,0,0,0,2.21.61l22.52-8.29a104.51,104.51,0,0,0,29.82,16.06l5.49,23.35a2,2,0,0,0,1.72,1.51l28.64,2.9a2,2,0,0,0,2-1.14l10.06-21.77A104.31,104.31,0,0,0,1531,716l20.41,12.63a1.94,1.94,0,0,0,2.28-.15l22.3-18.19a2,2,0,0,0,.6-2.21l-8.28-22.52a104.64,104.64,0,0,0,16.06-29.82l23.34-5.49a2,2,0,0,0,1.51-1.73l2.9-28.63a2,2,0,0,0-1.13-2l-21.77-10.06a104.23,104.23,0,0,0-9.75-32.43L1592.11,555a2,2,0,0,0-.15-2.28l-18.2-22.3a2,2,0,0,0-2.2-.61L1549,538.12a104.45,104.45,0,0,0-29.81-16.06l-5.5-23.35a2,2,0,0,0-1.72-1.51l-28.63-2.9a2,2,0,0,0-2,1.14l-10.06,21.77a104.37,104.37,0,0,0-32.44,9.75l-20.4-12.63a1.94,1.94,0,0,0-2.28.15l-22.3,18.19a2,2,0,0,0-.61,2.21l8.28,22.52a104.48,104.48,0,0,0-16,29.82l-23.35,5.49a2,2,0,0,0-1.51,1.72l-2.9,28.64a2,2,0,0,0,1.14,2l21.76,10.06a104.6,104.6,0,0,0,9.76,32.43L1377.78,688a2,2,0,0,0,.15,2.28Z"/><path class="cls-12" d="M1484.88,652.34a30.85,30.85,0,1,1,4.57-.33A32,32,0,0,1,1484.88,652.34Zm.11-51.12a20.27,20.27,0,1,0,2.91,40.32h0a20.27,20.27,0,0,0-2.91-40.32Z"/><path class="cls-12" d="M1485.44,692.29a70.59,70.59,0,0,1-7.23-.37h0a71.74,71.74,0,0,1-14.84-3.11,1.77,1.77,0,0,1-1.22-1.68,1.7,1.7,0,0,1,.09-.54,1.76,1.76,0,0,1,2.22-1.14,67.74,67.74,0,0,0,88.27-57.56,66.8,66.8,0,0,0,.35-6.89,67.69,67.69,0,0,0-135-6.76,68.7,68.7,0,0,0-.34,6.87,67.38,67.38,0,0,0,6.39,28.68,1.81,1.81,0,0,1,.16.75,1.76,1.76,0,0,1-3.36.75,71.05,71.05,0,0,1-6.72-30.18q0-3.6.36-7.22a71.22,71.22,0,1,1,70.91,78.4Z"/><g class="cls-51"><path class="cls-1" d="M882.53,651.85a1.76,1.76,0,0,1-1.69-1.27c-.43-1.44-.81-2.91-1.15-4.36a1.77,1.77,0,0,1,3.44-.8c.32,1.39.69,2.79,1.09,4.17a1.75,1.75,0,0,1-1.19,2.18A1.8,1.8,0,0,1,882.53,651.85Z"/><path class="cls-1" d="M879.93,639.05a1.75,1.75,0,0,1-1.75-1.56,79.42,79.42,0,0,1-.53-8.84,1.76,1.76,0,0,1,1.75-1.77h0a1.76,1.76,0,0,1,1.76,1.76,79.64,79.64,0,0,0,.51,8.44,1.77,1.77,0,0,1-1.55,2Zm-.07-17.29h-.19a1.76,1.76,0,0,1-1.57-1.94,82.89,82.89,0,0,1,1.43-8.74,1.76,1.76,0,1,1,3.44.76,78.09,78.09,0,0,0-1.36,8.35A1.76,1.76,0,0,1,879.86,621.76Zm3.73-16.88a1.88,1.88,0,0,1-.57-.09,1.77,1.77,0,0,1-1.1-2.24,82.06,82.06,0,0,1,3.34-8.21,1.76,1.76,0,0,1,3.19,1.51,74.84,74.84,0,0,0-3.19,7.84A1.76,1.76,0,0,1,883.59,604.88ZM891,589.25a1.75,1.75,0,0,1-.93-.26,1.77,1.77,0,0,1-.57-2.43,80.73,80.73,0,0,1,5.08-7.26,1.77,1.77,0,0,1,2.77,2.19,75.48,75.48,0,0,0-4.85,6.93A1.76,1.76,0,0,1,891,589.25Zm10.69-13.59a1.73,1.73,0,0,1-1.23-.5,1.76,1.76,0,0,1,0-2.5,80.2,80.2,0,0,1,6.56-5.95,1.76,1.76,0,0,1,2.22,2.74,76.62,76.62,0,0,0-6.27,5.69A1.76,1.76,0,0,1,901.69,575.66Zm13.43-10.88a1.77,1.77,0,0,1-1-3.25,81.15,81.15,0,0,1,7.71-4.36,1.77,1.77,0,0,1,1.56,3.17,75.24,75.24,0,0,0-7.37,4.16A1.73,1.73,0,0,1,915.12,564.78Zm74.55-5a1.63,1.63,0,0,1-.74-.17,74.82,74.82,0,0,0-7.86-3.14,1.76,1.76,0,1,1,1.12-3.34,76.7,76.7,0,0,1,8.23,3.29,1.76,1.76,0,0,1-.75,3.36Zm-59-2.69a1.76,1.76,0,0,1-.6-3.42,80.44,80.44,0,0,1,8.49-2.54,1.76,1.76,0,0,1,.81,3.43,78.52,78.52,0,0,0-8.1,2.42A1.59,1.59,0,0,1,930.62,557.13Zm42.66-2.82a2.33,2.33,0,0,1-.37,0,76.1,76.1,0,0,0-8.36-1.32,1.76,1.76,0,0,1,.35-3.51,80,80,0,0,1,8.75,1.38,1.77,1.77,0,0,1-.37,3.49Zm-25.84-1.19a1.76,1.76,0,0,1-.21-3.51,78.7,78.7,0,0,1,8.83-.57h0a1.76,1.76,0,0,1,0,3.52,76.84,76.84,0,0,0-8.45.55Z"/><path class="cls-1" d="M1001.06,566.38a1.68,1.68,0,0,1-1-.32c-1.18-.81-2.39-1.61-3.61-2.35a1.77,1.77,0,1,1,1.85-3c1.27.78,2.54,1.61,3.77,2.47a1.76,1.76,0,0,1-1,3.21Z"/></g><g class="cls-51"><path class="cls-1" d="M1033.56,618.91a1.76,1.76,0,0,1-1.74-1.51c-.2-1.42-.45-2.85-.73-4.24a1.76,1.76,0,1,1,3.45-.7c.3,1.46.56,2.95.77,4.44a1.77,1.77,0,0,1-1.49,2Z"/><path class="cls-1" d="M957,707.5c-1.21,0-2.43,0-3.65-.08a1.76,1.76,0,0,1-1.68-1.85,1.79,1.79,0,0,1,1.84-1.68,76.85,76.85,0,0,0,8.32-.07,1.76,1.76,0,0,1,.22,3.52C960.35,707.44,958.65,707.5,957,707.5Zm-12.05-.93-.27,0a81.8,81.8,0,0,1-8.53-1.81,1.76,1.76,0,1,1,.92-3.4,75.15,75.15,0,0,0,8.15,1.72,1.77,1.77,0,0,1-.27,3.51Zm25.45-.24a1.76,1.76,0,0,1-.31-3.5,75.09,75.09,0,0,0,8.11-1.89,1.76,1.76,0,1,1,1,3.38,76.91,76.91,0,0,1-8.49,2Zm-41.87-4.2a1.64,1.64,0,0,1-.65-.13,79.67,79.67,0,0,1-7.92-3.63,1.76,1.76,0,0,1,1.65-3.12,75.8,75.8,0,0,0,7.56,3.47,1.77,1.77,0,0,1-.64,3.41Zm58.19-.58a1.74,1.74,0,0,1-1.62-1.08,1.76,1.76,0,0,1,.94-2.31,74.79,74.79,0,0,0,7.49-3.62,1.77,1.77,0,0,1,1.71,3.09,80.81,80.81,0,0,1-7.84,3.79A1.79,1.79,0,0,1,986.68,701.55Zm14.88-8.23a1.76,1.76,0,0,1-1-3.2,79.23,79.23,0,0,0,6.53-5.17,1.76,1.76,0,0,1,2.49.15,1.78,1.78,0,0,1-.15,2.49,80.66,80.66,0,0,1-6.83,5.41A1.83,1.83,0,0,1,1001.56,693.32ZM1014.3,682a1.75,1.75,0,0,1-1.31-2.94,77.63,77.63,0,0,0,5.25-6.47,1.76,1.76,0,1,1,2.85,2.07,79.16,79.16,0,0,1-5.49,6.77A1.77,1.77,0,0,1,1014.3,682Zm10-13.77a1.86,1.86,0,0,1-.87-.23,1.78,1.78,0,0,1-.66-2.41,72.78,72.78,0,0,0,3.71-7.45,1.76,1.76,0,0,1,3.24,1.39,79.9,79.9,0,0,1-3.88,7.81A1.77,1.77,0,0,1,1024.27,668.27Zm6.72-15.63a1.86,1.86,0,0,1-.51-.08,1.76,1.76,0,0,1-1.17-2.2,75.48,75.48,0,0,0,2-8.08,1.76,1.76,0,0,1,3.47.64,79.22,79.22,0,0,1-2.07,8.47A1.76,1.76,0,0,1,1031,652.64Zm3.14-16.72H1034a1.75,1.75,0,0,1-1.62-1.89l0-.53c.12-1.76.18-3.54.18-5.3,0-.83,0-1.67,0-2.49a1.76,1.76,0,0,1,3.52-.12c0,.87,0,1.74,0,2.61,0,1.84-.07,3.7-.19,5.54l0,.56A1.76,1.76,0,0,1,1034.13,635.92Z"/><path class="cls-1" d="M913.37,694.14a1.75,1.75,0,0,1-1-.31c-1.25-.84-2.47-1.73-3.65-2.63a1.77,1.77,0,1,1,2.15-2.8c1.12.86,2.29,1.71,3.49,2.52a1.76,1.76,0,0,1-1,3.22Z"/></g><path class="cls-55" d="M915.05,670.59a.92.92,0,0,0,1,.29L926.71,667a49.31,49.31,0,0,0,14.06,7.58l2.59,11a1,1,0,0,0,.82.72l13.5,1.36a.93.93,0,0,0,.94-.53l4.74-10.27a49.52,49.52,0,0,0,15.3-4.59l9.62,6a.93.93,0,0,0,1.08-.07l10.51-8.58a.92.92,0,0,0,.29-1l-3.91-10.62a49.31,49.31,0,0,0,7.58-14.06l11-2.6a.93.93,0,0,0,.72-.81l1.36-13.5a.93.93,0,0,0-.53-.94l-10.27-4.74a49.25,49.25,0,0,0-4.59-15.3l6-9.62a.93.93,0,0,0-.07-1.08l-8.58-10.51a.92.92,0,0,0-1-.29l-10.62,3.91a49.31,49.31,0,0,0-14.06-7.58l-2.59-11a1,1,0,0,0-.82-.71l-13.5-1.37a.94.94,0,0,0-.94.54l-4.74,10.27a49.25,49.25,0,0,0-15.3,4.59l-9.62-6a.93.93,0,0,0-1.08.07L914,585.77a.92.92,0,0,0-.29,1l3.91,10.62A49.31,49.31,0,0,0,910,611.49l-11,2.59a1,1,0,0,0-.71.82L897,628.4a1,1,0,0,0,.54.94l10.27,4.74a49.25,49.25,0,0,0,4.59,15.3l-6,9.62a.93.93,0,0,0,.07,1.08Z"/><path class="cls-12" d="M956.93,641.47a13.83,13.83,0,1,1,2-.15A13.83,13.83,0,0,1,956.93,641.47Zm0-24.11a11.07,11.07,0,0,0-1.51.11,10.29,10.29,0,1,0,3,20.36h0a10.29,10.29,0,0,0-1.5-20.47Z"/><path class="cls-12" d="M957.17,662c-1.16,0-2.33-.06-3.51-.17h0a35.24,35.24,0,0,1-7.19-1.51,1.78,1.78,0,0,1-1.22-1.68,1.7,1.7,0,0,1,.09-.54,1.77,1.77,0,0,1,2.22-1.14,31.46,31.46,0,0,0,6.46,1.36h0a31,31,0,0,0,33.87-26.95l.09-.76c.1-1.07.16-2.13.16-3.19a31,31,0,0,0-61.83-3.06,30.21,30.21,0,0,0-.16,3.15,30.84,30.84,0,0,0,2.93,13.12,1.84,1.84,0,0,1,.16.75,1.76,1.76,0,0,1-3.36.75,34.35,34.35,0,0,1-3.25-14.62,31.43,31.43,0,0,1,.17-3.5,34.52,34.52,0,0,1,68.86,3.41,35.12,35.12,0,0,1-.18,3.54A34.56,34.56,0,0,1,957.17,662Z"/><g class="cls-51"><path class="cls-1" d="M1782.29,861.46a1.76,1.76,0,0,0,1.69-1.26c.42-1.43.81-2.87,1.17-4.33a1.76,1.76,0,0,0-3.42-.85c-.35,1.41-.73,2.8-1.13,4.18a1.76,1.76,0,0,0,1.19,2.19A1.73,1.73,0,0,0,1782.29,861.46Z"/><path class="cls-1" d="M1784.91,848.64a1.76,1.76,0,0,1-1.46-2c.46-2.81.8-5.68,1-8.52a1.76,1.76,0,1,1,3.51.28c-.23,2.94-.58,5.9-1.06,8.81a1.76,1.76,0,0,1-1.74,1.48Zm-.11-19.11c0-2.33-.09-4.69-.25-7l-.12-1.59a1.76,1.76,0,0,1,3.51-.29c0,.54.09,1.08.13,1.63.17,2.38.25,4.82.26,7.23a1.77,1.77,0,0,1-1.76,1.77h0A1.78,1.78,0,0,1,1784.8,829.53Zm-1.44-17.09c-.47-2.82-1.06-5.65-1.75-8.39a1.76,1.76,0,0,1,3.42-.87c.71,2.84,1.33,5.76,1.81,8.68a1.77,1.77,0,0,1-1.45,2,1.43,1.43,0,0,1-.29,0A1.77,1.77,0,0,1,1783.36,812.44Zm-4.19-16.62c-.92-2.69-2-5.38-3.1-8a1.75,1.75,0,0,1,.9-2.32,1.77,1.77,0,0,1,2.33.91c1.18,2.7,2.26,5.48,3.21,8.26a1.76,1.76,0,0,1-1.1,2.24,1.63,1.63,0,0,1-.57.1A1.76,1.76,0,0,1,1779.17,795.82Zm-6.87-15.7c-1.35-2.51-2.83-5-4.38-7.38a1.76,1.76,0,1,1,2.95-1.92c1.61,2.47,3.14,5,4.53,7.62a1.75,1.75,0,0,1-.71,2.39,1.7,1.7,0,0,1-.84.22A1.77,1.77,0,0,1,1772.3,780.12Zm-9.36-14.37c-1.74-2.25-3.6-4.45-5.53-6.56a1.78,1.78,0,0,1,.11-2.49,1.76,1.76,0,0,1,2.49.11c2,2.18,3.92,4.46,5.72,6.78a1.77,1.77,0,0,1-.31,2.48,1.8,1.8,0,0,1-1.08.36A1.76,1.76,0,0,1,1762.94,765.75Zm-11.57-12.65c-2.09-1.94-4.29-3.81-6.52-5.57a1.76,1.76,0,1,1,2.18-2.77c2.31,1.81,4.57,3.75,6.74,5.76a1.76,1.76,0,0,1-1.2,3.05A1.74,1.74,0,0,1,1751.37,753.1Zm-13.48-10.6c-2.37-1.57-4.84-3.06-7.33-4.43a1.77,1.77,0,0,1,1.69-3.1c2.58,1.42,5.14,3,7.59,4.59a1.76,1.76,0,1,1-1.95,2.94Zm-108.57-6.18a1.76,1.76,0,0,1,.75-2.38c2.6-1.37,5.3-2.64,8-3.79a1.76,1.76,0,0,1,1.37,3.25c-2.62,1.11-5.24,2.34-7.76,3.66a1.72,1.72,0,0,1-.81.21A1.78,1.78,0,0,1,1629.32,736.32Zm93.56-2.08c-2.6-1.16-5.28-2.23-8-3.18a1.76,1.76,0,1,1,1.17-3.32c2.77,1,5.54,2.08,8.23,3.28a1.77,1.77,0,0,1-.72,3.38A1.68,1.68,0,0,1,1722.88,734.24Zm-77.61-5a1.76,1.76,0,0,1,1.12-2.22c2.8-.92,5.67-1.73,8.54-2.42a1.76,1.76,0,0,1,.82,3.43c-2.78.66-5.56,1.45-8.25,2.34a1.82,1.82,0,0,1-.56.09A1.75,1.75,0,0,1,1645.27,729.26Zm61.45-.71c-2.75-.72-5.57-1.34-8.38-1.83a1.76,1.76,0,0,1,.61-3.47c2.91.51,5.82,1.14,8.67,1.89a1.76,1.76,0,1,1-.9,3.41Zm-44.57-3.63a1.78,1.78,0,0,1,1.48-2c2.9-.45,5.87-.78,8.81-1a1.76,1.76,0,1,1,.26,3.51c-2.86.21-5.72.53-8.53,1l-.27,0A1.78,1.78,0,0,1,1662.15,724.92Zm27.69.67c-2.83-.26-5.71-.4-8.57-.43a1.76,1.76,0,1,1,0-3.52h0c3,0,5.94.17,8.86.44a1.76,1.76,0,0,1-.16,3.52Z"/><path class="cls-1" d="M1619.56,744.13a1.79,1.79,0,0,0,1-.31q1.77-1.25,3.6-2.4a1.76,1.76,0,1,0-1.89-3q-1.89,1.2-3.73,2.48a1.77,1.77,0,0,0-.43,2.46A1.75,1.75,0,0,0,1619.56,744.13Z"/></g><g class="cls-51"><path class="cls-1" d="M1575.19,814.63a1.77,1.77,0,0,0,1.74-1.49c.23-1.43.48-2.85.77-4.26a1.77,1.77,0,1,0-3.46-.7c-.29,1.46-.56,2.93-.79,4.41a1.76,1.76,0,0,0,1.46,2Z"/><path class="cls-1" d="M1676.41,937.8a1.75,1.75,0,0,1-1.7-1.82,1.78,1.78,0,0,1,1.82-1.7c1.16,0,2.33.06,3.5.06,1.59,0,3.29,0,4.94-.11a1.76,1.76,0,1,1,.16,3.52c-1.71.08-3.37.11-5.1.12C1678.82,937.87,1677.61,937.85,1676.41,937.8Zm-8.7-.64c-2.88-.33-5.78-.79-8.62-1.35a1.76,1.76,0,1,1,.69-3.46c2.75.54,5.55,1,8.33,1.3a1.77,1.77,0,0,1-.2,3.52Zm24.15-1.68a1.76,1.76,0,0,1,1.53-2c2.77-.35,5.58-.82,8.33-1.39a1.76,1.76,0,0,1,.72,3.45c-2.85.59-5.74,1.07-8.61,1.44h-.22A1.76,1.76,0,0,1,1691.86,935.48Zm-41.25-1.72c-2.79-.79-5.58-1.71-8.29-2.73a1.76,1.76,0,1,1,1.24-3.3c2.62,1,5.32,1.87,8,2.64a1.76,1.76,0,0,1-.48,3.46A1.59,1.59,0,0,1,1650.61,933.76Zm58.1-1.51a1.76,1.76,0,0,1,1.2-2.19c2.69-.8,5.38-1.71,8-2.72a1.76,1.76,0,1,1,1.27,3.29c-2.7,1-5.48,2-8.27,2.81a1.68,1.68,0,0,1-.5.07A1.77,1.77,0,0,1,1708.71,932.25Zm-74.42-4.6c-2.62-1.24-5.22-2.59-7.74-4a1.76,1.76,0,0,1,1.75-3.06c2.44,1.39,5,2.7,7.49,3.89a1.76,1.76,0,0,1-.75,3.36A1.81,1.81,0,0,1,1634.29,927.65Zm90.53-1.31a1.76,1.76,0,0,1,.82-2.35c2.52-1.22,5-2.56,7.45-4a1.76,1.76,0,0,1,1.79,3c-2.51,1.47-5.1,2.85-7.7,4.11a1.76,1.76,0,0,1-2.36-.82ZM1619.16,919c-2.38-1.63-4.74-3.39-7-5.22a1.75,1.75,0,0,1-.26-2.48,1.77,1.77,0,0,1,2.48-.26c2.18,1.77,4.46,3.47,6.76,5.05a1.76,1.76,0,1,1-2,2.91Zm-13.54-11c-2.1-2-4.14-4.1-6.08-6.26a1.78,1.78,0,0,1,.14-2.49,1.76,1.76,0,0,1,2.49.14c1.87,2.09,3.85,4.13,5.88,6.06a1.77,1.77,0,0,1,.06,2.49,1.74,1.74,0,0,1-1.28.55A1.72,1.72,0,0,1,1605.62,908ZM1594,895c-1.76-2.31-3.44-4.72-5-7.16a1.76,1.76,0,1,1,3-1.9c1.51,2.37,3.13,4.7,4.83,6.93a1.77,1.77,0,0,1-1.41,2.83A1.74,1.74,0,0,1,1594,895Zm-9.39-14.7c-1.36-2.57-2.62-5.22-3.77-7.88a1.76,1.76,0,0,1,3.24-1.39c1.11,2.57,2.33,5.13,3.65,7.62A1.75,1.75,0,0,1,1587,881a1.79,1.79,0,0,1-.83.21A1.77,1.77,0,0,1,1584.61,880.3Zm-6.88-16c-.92-2.74-1.74-5.56-2.44-8.38a1.76,1.76,0,0,1,3.42-.85c.68,2.73,1.47,5.45,2.36,8.11a1.76,1.76,0,0,1-1.1,2.23,1.88,1.88,0,0,1-.57.09A1.76,1.76,0,0,1,1577.73,864.27Zm-4.2-16.92c-.46-2.86-.82-5.77-1.06-8.66a1.76,1.76,0,0,1,3.51-.29c.23,2.79.58,5.61,1,8.38a1.75,1.75,0,0,1-1.45,2,1.43,1.43,0,0,1-.29,0A1.78,1.78,0,0,1,1573.53,847.35ZM1572.09,830v-.32c0-2.79.11-5.61.33-8.39a1.76,1.76,0,1,1,3.51.27c-.2,2.69-.31,5.42-.31,8.12V830a1.77,1.77,0,0,1-3.53,0Z"/><path class="cls-1" d="M1741.29,918.59a1.76,1.76,0,0,0,1-.32q1.83-1.29,3.61-2.65a1.77,1.77,0,0,0-2.15-2.8c-1.14.88-2.31,1.74-3.49,2.57a1.76,1.76,0,0,0,1,3.2Z"/></g><path class="cls-56" d="M1749.42,873.42a1.26,1.26,0,0,0,.1-1.48l-8.18-13.21a67.68,67.68,0,0,0,6.32-21l14.09-6.52a1.26,1.26,0,0,0,.73-1.28l-1.88-18.54a1.27,1.27,0,0,0-1-1.12l-15.12-3.55a67.35,67.35,0,0,0-10.39-19.31l5.36-14.58a1.28,1.28,0,0,0-.39-1.43l-14.44-11.78a1.3,1.3,0,0,0-1.48-.1L1710,767.71a67.74,67.74,0,0,0-21-6.31l-6.52-14.1a1.27,1.27,0,0,0-1.29-.73l-18.54,1.88a1.28,1.28,0,0,0-1.11,1L1658,764.54a67.68,67.68,0,0,0-19.3,10.39l-14.58-5.36a1.28,1.28,0,0,0-1.43.39l-11.78,14.44a1.28,1.28,0,0,0-.1,1.48l8.18,13.21a67.45,67.45,0,0,0-6.31,21l-14.1,6.51a1.28,1.28,0,0,0-.73,1.29l1.88,18.54a1.26,1.26,0,0,0,1,1.11l15.12,3.56a67.68,67.68,0,0,0,10.39,19.3L1620.8,885a1.28,1.28,0,0,0,.39,1.43l14.44,11.78a1.26,1.26,0,0,0,1.48.1l13.21-8.18a67.49,67.49,0,0,0,21,6.32l6.52,14.09a1.27,1.27,0,0,0,1.29.73l18.54-1.87a1.28,1.28,0,0,0,1.11-1l3.56-15.11a67.7,67.7,0,0,0,19.3-10.4l14.58,5.36a1.28,1.28,0,0,0,1.43-.39Z"/><path class="cls-12" d="M1677.47,847h0a18.36,18.36,0,1,1,2.68.19A18.78,18.78,0,0,1,1677.47,847Zm-12-20.27A14.81,14.81,0,0,0,1678,843.54h0a14.78,14.78,0,1,0,4.32-29.25,14.5,14.5,0,0,0-2.17-.16A14.81,14.81,0,0,0,1665.51,826.76Z"/><path class="cls-12" d="M1679.77,875.37c1.59,0,3.19-.08,4.79-.24h0q1-.11,1.92-.24a47.72,47.72,0,0,0,6.61-1.43l.22-.07.55-.16.44-.14a1.77,1.77,0,0,0,1.22-1.68,1.7,1.7,0,0,0-.09-.54,1.75,1.75,0,0,0-2.22-1.14A43.21,43.21,0,0,1,1636.87,833a44.29,44.29,0,0,1-.22-4.44,43.21,43.21,0,0,1,86.19-4.27c.14,1.46.22,2.93.22,4.39A43.07,43.07,0,0,1,1719,847a1.82,1.82,0,0,0-.17.75,1.77,1.77,0,0,0,3.36.75,46.73,46.73,0,1,0-89.05-19.93,45.72,45.72,0,0,0,.25,4.81,46.73,46.73,0,0,0,46.4,42Z"/><path class="cls-57" d="M1787.34,1055.31l3.09-4.33a1.32,1.32,0,0,0-2.16-1.53h0v0l-3,4.32v0a1.29,1.29,0,0,0,2.11,1.49Z"/><path class="cls-57" d="M1797.29,1040.65l2.8-4.52a1.42,1.42,0,1,0-2.41-1.49h0v0l-2.73,4.5v0a1.39,1.39,0,0,0,2.37,1.45Z"/><path class="cls-57" d="M1806.29,1025.39l2.52-4.69a1.51,1.51,0,0,0-2.67-1.43v0l-2.44,4.67v0a1.48,1.48,0,0,0,2.62,1.39Z"/><path class="cls-57" d="M1814.33,1009.59l2.21-4.84a1.61,1.61,0,1,0-2.92-1.34v.05l-2.14,4.8v0a1.57,1.57,0,0,0,.8,2.08A1.59,1.59,0,0,0,1814.33,1009.59Z"/><path class="cls-57" d="M1821.35,993.31l1.91-5a1.7,1.7,0,1,0-3.18-1.22v0l-1.84,4.92v0a1.67,1.67,0,0,0,3.13,1.19Z"/><path class="cls-57" d="M1827.34,976.61l1.59-5.08a1.8,1.8,0,0,0-3.43-1.08v.06l-1.51,5v0a1.77,1.77,0,0,0,3.38,1Z"/><path class="cls-57" d="M1832.25,959.55l1.25-5.17a1.89,1.89,0,0,0-3.68-.9v.06l-1.18,5.12v0a1.87,1.87,0,0,0,3.63.86Z"/><path class="cls-57" d="M1836,942.2l.9-5.25a2,2,0,1,0-3.92-.68v.06l-.83,5.19v0a2,2,0,0,0,3.87.64Z"/><path class="cls-57" d="M1838.62,924.62l.54-5.3a2.08,2.08,0,0,0-4.14-.42V919l-.47,5.23v0a2.05,2.05,0,0,0,4.09.39Z"/><path class="cls-57" d="M1840,906.9l.16-5.34a2.18,2.18,0,0,0-4.35-.13v.07l-.1,5.24v0a2.15,2.15,0,0,0,4.29.11Z"/><path class="cls-57" d="M1840.05,889.11l-.24-5.33a2.27,2.27,0,1,0-4.54.21v.07l.29,5.22v.06a2.24,2.24,0,0,0,4.48-.23Z"/><path class="cls-57" d="M1838.78,871.36l-.66-5.31a2.37,2.37,0,1,0-4.7.58v.08l.7,5.19V872a2.34,2.34,0,0,0,4.64-.59Z"/><path class="cls-57" d="M1836.11,853.74,1835,848.5a2.47,2.47,0,0,0-4.83,1v.09l1.11,5.11v.06a2.44,2.44,0,0,0,4.77-1Z"/><path class="cls-57" d="M1832,836.38l-1.51-5.13a2.56,2.56,0,0,0-4.91,1.44v0l0,.06,1.53,5,0,.06a2.53,2.53,0,0,0,4.84-1.45Z"/><path class="cls-57" d="M1826.45,819.42l-2-5a2.65,2.65,0,1,0-4.93,2v0l0,.07,2,4.83,0,.07a2.62,2.62,0,0,0,4.87-2Z"/><path class="cls-57" d="M1819.35,803l-2.42-4.78a2.75,2.75,0,1,0-4.9,2.48v0l0,.07,2.4,4.63,0,.06a2.72,2.72,0,0,0,4.84-2.48Z"/><path class="cls-57" d="M1810.79,787.32l-2.83-4.55a2.84,2.84,0,0,0-4.83,3l0,0,0,.06,2.8,4.4,0,.06a2.81,2.81,0,0,0,4.76-3Z"/><path class="cls-57" d="M1800.88,772.44l-3.22-4.29a2.94,2.94,0,0,0-4.7,3.53l0,0,0,.06,3.17,4.14,0,.06a2.91,2.91,0,0,0,4.63-3.52Z"/><path class="cls-57" d="M1789.72,758.47l-3.57-4a3,3,0,1,0-4.52,4l0,0,0,.06,3.52,3.85,0,.06a3,3,0,0,0,4.45-4Z"/><path class="cls-57" d="M1777.4,745.5l-3.9-3.69a3.13,3.13,0,0,0-4.29,4.56l0,0,.06.05,3.83,3.53.06.06a3.1,3.1,0,0,0,4.22-4.53Z"/><path class="cls-57" d="M1764,733.62l-4.21-3.33a3.22,3.22,0,1,0-4,5.05l0,0,.06,0,4.12,3.19.07,0a3.19,3.19,0,0,0,3.93-5Z"/><path class="cls-57" d="M1749.62,723l-4.5-3a3.32,3.32,0,1,0-3.63,5.55l0,0,.07,0,4.38,2.81.08.05a3.29,3.29,0,0,0,3.57-5.52Z"/><path class="cls-57" d="M1734.32,713.6l-4.75-2.53a3.41,3.41,0,1,0-3.21,6l0,0,.08,0,4.61,2.39.09.05a3.38,3.38,0,0,0,3.14-6Z"/><path class="cls-57" d="M1718.2,705.7l-5-2.07a3.51,3.51,0,0,0-2.69,6.48h0l.09,0,4.81,1.94.1,0a3.47,3.47,0,0,0,2.63-6.43Z"/><path class="cls-57" d="M1701.37,699.39l-5.17-1.56a3.6,3.6,0,1,0-2.08,6.89h0l.11,0,5,1.45.11,0a3.57,3.57,0,0,0,2-6.85Z"/><path class="cls-57" d="M1684,694.81l-5.32-1a3.69,3.69,0,1,0-1.38,7.26h0l.11,0,5.09.91.12,0a3.67,3.67,0,0,0,1.34-7.21Z"/><path class="cls-57" d="M1666.13,692.11l-5.4-.43a3.79,3.79,0,1,0-.6,7.56h.17l5.15.35h.13a3.76,3.76,0,0,0,.55-7.5Z"/><path class="cls-57" d="M1648.09,691.39l-3.19.09a3.87,3.87,0,1,0,.21,7.74h.12l3-.11h.08a3.86,3.86,0,0,0-.25-7.71Z"/><path class="cls-57" d="M1776.55,1047.81l2.9-4.51a1.51,1.51,0,0,0-2.54-1.64l0,0,0,.07-2.68,4.47,0,.07a1.41,1.41,0,0,0,.49,2A1.43,1.43,0,0,0,1776.55,1047.81Z"/><path class="cls-57" d="M1785.3,1032.22l2.11-5a1.8,1.8,0,0,0-3.31-1.4v0l0,.09-1.88,4.85,0,.09a1.71,1.71,0,0,0,3.16,1.28Z"/><path class="cls-57" d="M1791.34,1015.34l1.25-5.25a2.08,2.08,0,0,0-4-1v.06l0,.11-1,5.08,0,.1a2,2,0,0,0,3.89.87Z"/><path class="cls-57" d="M1794.51,997.65l.38-5.4a2.36,2.36,0,1,0-4.71-.33.2.2,0,0,0,0,.07v.13l-.2,5.17v.11a2.27,2.27,0,0,0,4.54.25Z"/><path class="cls-57" d="M1794.7,979.62l-.55-5.4a2.64,2.64,0,1,0-5.26.54.17.17,0,0,0,0,.07l0,.15.68,5.1,0,.14a2.56,2.56,0,0,0,5.08-.6Z"/><path class="cls-57" d="M1791.78,961.77l-1.46-5.23a2.93,2.93,0,0,0-5.65,1.58l0,.08,0,.15,1.55,4.91,0,.14a2.84,2.84,0,0,0,5.44-1.63Z"/><path class="cls-57" d="M1785.87,944.65l-2.32-4.93a3.21,3.21,0,0,0-5.81,2.74l0,.08.08.16,2.34,4.57.07.14a3.13,3.13,0,0,0,5.61-2.76Z"/><path class="cls-57" d="M1777.19,928.7l-3.11-4.49a3.5,3.5,0,1,0-5.75,4l.06.08.11.15,3,4.11.1.14a3.41,3.41,0,0,0,5.54-4Z"/><path class="cls-57" d="M1766,914.36l-3.83-3.92a3.78,3.78,0,0,0-5.41,5.29l.07.08.15.14,3.68,3.53.14.13a3.7,3.7,0,0,0,5.2-5.25Z"/><rect class="cls-58" x="461.73" y="1362.29" width="13.91" height="150.45"/><path class="cls-59" d="M407.77,1515.64H529.61v-6.2a2.85,2.85,0,0,0-2.85-2.85H410.84a3.06,3.06,0,0,0-3.07,3.07Z"/><rect class="cls-60" x="384.72" y="1326.47" width="162.81" height="46.18" rx="15.9" ry="15.9"/><path class="cls-61" d="M546.18,1486.09S585.9,1514.72,579,1534c0,0-43.46-18.75-48.71-33.53s.89-21.29.89-21.29Z"/><path class="cls-62" d="M540.21,1462.09l-6.5,18.78a6.52,6.52,0,0,0,2.54,7.66,16.81,16.81,0,0,0,5.37,2.08,7.6,7.6,0,0,0,8.41-3.81l7.77-14.64Z"/><path class="cls-63" d="M477,1293.07s81.6,14.14,116.6,46.47S561.46,1475,561.46,1475s-11-.06-24.32-11.49c0,0,39.8-77.57,5.5-100.19-38.57-25.43-83-31.16-83-31.16l16.57-36.61Z"/><path class="cls-64" d="M572.1,1523.32c-8.74-4-33.47-21.36-37.64-22.12s-11.41,4.13-11.41,4.13-1.75,3.17.13,8.69c5.8,7,18.69,20.41,36,25.4,12.74,3.68,21.66.25,27.21-3.75A36.77,36.77,0,0,0,572.1,1523.32Z"/><path class="cls-65" d="M559.21,1539.42c-17.34-5-30.23-18.38-36-25.4,1.27,3.73,4.2,8.53,10.47,14.16,15.53,14,45.21,19,51.53,18,5.06-.78,4.59-5.45,1.24-10.54C580.87,1539.67,572,1543.1,559.21,1539.42Z"/><path class="cls-66" d="M515.65,1493.11c.09,2.41,5,10.67,7.89,15.3a7.51,7.51,0,0,0,6.35,3.55,19.22,19.22,0,0,0,5.25-.63,4.87,4.87,0,0,0,3.27-6l-5.62-19.19Z"/><path class="cls-67" d="M398.45,1268.57s-18.12,48.46,0,63.19,61.35,31.33,71,60.68,26,86.38,48,106.58c0,0,15.41-1.49,21.18-7.63,0,0-12.49-85.15-20.73-107-7.14-18.92-17.65-46.23-37.79-61.49-5.77-4.37-4.76-11.29-2.09-18l4.87-12.25Z"/><path class="cls-68" d="M587.44,1230.6c-30.38,1.83-20.92-46.71-20.37-48.64L521,1214.53s2.44,26,40.78,39.58a47.72,47.72,0,0,0,26.4,1.91A42,42,0,0,1,587.44,1230.6Z"/><path class="cls-69" d="M646.19,1216c-11.32-7.88-24.15,0-24.15,0-15.14,9.9-26.34,14.11-34.6,14.61a42,42,0,0,0,.7,25.42c17-3.65,29.1-15.92,34.37-22.22a5.48,5.48,0,0,1,7.58-.83c2.36,1.86,4.65,4.41,4.23,7.09-.82,5.3,5.32,7,5.78,5.06s-2.1-13.3-2.1-13.3,12.28,12.35,17.08,17.1,10.82,0,10.82,0S657.51,1223.86,646.19,1216Z"/><path class="cls-70" d="M445.77,1107s44.2-17.69,126.46,50.22c0,0,6.87,14.22-.62,26.88s-78.92,74.35-88.74,108.55c0,0-42.55,13.83-86.56-19C396.31,1273.68,400.2,1178.48,445.77,1107Z"/><path class="cls-71" d="M533.15,1091.2l-21.76,26.38a8.65,8.65,0,0,0-1.14,9.31c3,6.16,10.18,15.13,26.08,13.89a13.36,13.36,0,0,0,11-7.49l15.21-31.45Z"/><path class="cls-72" d="M411.54,1220c-5.13-20.9,46.85-67.49,46.85-67.49L445.77,1107s-112.24,74.72-83.64,134.81c4.1,8.61,9.55,14.64,15.86,18.68C387,1236.15,401.43,1225,411.54,1220Z"/><path class="cls-73" d="M411.51,1216.93a1.21,1.21,0,0,1-1.19-.93c-5.25-21.37,45.07-66.78,47.21-68.7a1.23,1.23,0,1,1,1.64,1.83c-.51.46-51.37,46.33-46.47,66.28a1.24,1.24,0,0,1-.9,1.49Z"/><path class="cls-74" d="M490.27,1218.17s-61.63,23.93-76.67,5.93a10.18,10.18,0,0,1-2.06-4.13c-10.11,5-24.51,16.18-33.55,40.51,32.41,20.71,87.81-11.52,102.79-21a11.22,11.22,0,0,1,8.28-1.52c5.78,1.2,15.76,3,21.14,2.13,7.88-1.21,19.19,26.57,31.95,18C542.15,1258.06,531.22,1209.78,490.27,1218.17Z"/><path class="cls-75" d="M587.43,1060.84s.38,28.73-4.26,41.77-5.37,22.47-21.19,18.85-25.15-16.17-26.54-31.69c0,0-2.33-24,3.4-31S587.43,1060.84,587.43,1060.84Z"/><path class="cls-76" d="M544.31,1082.75l1.86.78s-1.07-19,6.84-18.9,36.92,5.83,46.66-1.23c9.4-6.81,9.4-20.69,3.37-27.11a1.08,1.08,0,0,0-1.46-.07l-1.1.91a1.09,1.09,0,0,1-1.77-1h0a1.08,1.08,0,0,0-1.68-1c-2.95,2.09-9.67,4.7-23.48,1.68-19.59-4.28-34.71-2-40.28,10.48a1.08,1.08,0,0,1-1.89.17c-1-1.38-3-2.67-6.87-1.46-6.76,2.1-9.29,13.85-2.1,27.41a1.08,1.08,0,0,1-.73,1.58c-2.52.46-6.77,2.29-.83,9.61,6.09,7.48,10.92,9,12.86,9.26a1.08,1.08,0,0,0,1.19-.72l4-11.42a1.08,1.08,0,0,1,1.44-.65Z"/><path class="cls-77" d="M543.79,1085.27s2.48-17.2-6.31-15.77-3.68,18.89,1.66,21.82Z"/><path class="cls-78" d="M750.21,1542.67a5.43,5.43,0,0,0,2.15-.43,5.19,5.19,0,0,0,2.84-6.91l-114-256.46a5.51,5.51,0,0,0-7.14-2.75,5.2,5.2,0,0,0-2.85,6.91l114,256.46A5.44,5.44,0,0,0,750.21,1542.67Z"/><path class="cls-79" d="M621.84,1542.67a5.44,5.44,0,0,0,5-3.18l114-256.46a5.2,5.2,0,0,0-2.85-6.91,5.51,5.51,0,0,0-7.14,2.75L616.85,1535.33a5.19,5.19,0,0,0,2.84,6.91A5.43,5.43,0,0,0,621.84,1542.67Z"/><path class="cls-80" d="M397.48,1542.67a5.38,5.38,0,0,0,2.14-.43,5.2,5.2,0,0,0,2.85-6.91l-114-256.46a5.51,5.51,0,0,0-7.14-2.75,5.2,5.2,0,0,0-2.85,6.91l114,256.46A5.43,5.43,0,0,0,397.48,1542.67Z"/><path class="cls-81" d="M269.11,1542.67a5.44,5.44,0,0,0,5-3.18l114-256.46a5.19,5.19,0,0,0-2.84-6.91,5.51,5.51,0,0,0-7.14,2.75L264.12,1535.33a5.19,5.19,0,0,0,2.84,6.91A5.43,5.43,0,0,0,269.11,1542.67Z"/><path class="cls-82" d="M255.74,1271a6.28,6.28,0,0,1,1.08-4.75,4.93,4.93,0,0,1,4-2.08h518.4a5.78,5.78,0,0,1,5,3,7.29,7.29,0,0,1,.38,6.33l-5.62,13.61a7.86,7.86,0,0,1-7.14,5.12H264.33a6.17,6.17,0,0,1-5.84-5.4Z"/><path class="cls-83" d="M521.84,1265.36h.3l129.3-.14a5.79,5.79,0,1,0,0-11.57l-129.3.14a5.79,5.79,0,0,0-.28,11.57Z"/><path class="cls-84" d="M767.67,1148H660a20.51,20.51,0,0,0-18.56,11.77l-49.78,105.56H725.46a12.47,12.47,0,0,0,11.6-7.89l38.61-97.68A8.6,8.6,0,0,0,767.67,1148Z"/><ellipse class="cls-85" cx="699.88" cy="1204.68" rx="13.79" ry="8.48" transform="translate(-661.3 1501.8) rotate(-72.16)"/><path class="cls-1" d="M911.63,487.52l27.69-14.44v6.16a2.43,2.43,0,0,1-.35,1.27,2.8,2.8,0,0,1-1.15,1L925.13,488a11.72,11.72,0,0,1-1.7.72c-.59.2-1.23.38-1.9.54.67.16,1.31.34,1.9.54a11.72,11.72,0,0,1,1.7.72l12.69,6.54a2.86,2.86,0,0,1,1.15,1,2.46,2.46,0,0,1,.35,1.28v6.15L911.63,491Z"/><path class="cls-1" d="M955,512.94a5.19,5.19,0,0,1-.81,1.4,4.58,4.58,0,0,1-1.12,1,4.93,4.93,0,0,1-1.32.61,4.48,4.48,0,0,1-1.37.21H946.7l20.41-52.23a5,5,0,0,1,1.72-2.25,4.57,4.57,0,0,1,2.69-.79h3.67Z"/><path class="cls-1" d="M982.39,505.49v-6.15a2.46,2.46,0,0,1,.35-1.28,2.86,2.86,0,0,1,1.15-1l12.69-6.54a17.19,17.19,0,0,1,3.6-1.26c-.67-.16-1.31-.34-1.9-.54a12.21,12.21,0,0,1-1.7-.72l-12.69-6.5a2.8,2.8,0,0,1-1.15-1,2.43,2.43,0,0,1-.35-1.27v-6.16l27.69,14.44V491Z"/><path class="cls-1" d="M1658.92,1145.09l19.63-10.24v4.36a1.68,1.68,0,0,1-.25.91,2,2,0,0,1-.81.7l-9,4.61a8,8,0,0,1-1.2.51q-.63.21-1.35.39c.48.11.93.24,1.35.38a8,8,0,0,1,1.2.51l9,4.63a2,2,0,0,1,.81.71,1.65,1.65,0,0,1,.25.9v4.37l-19.63-10.26Z"/><path class="cls-1" d="M1687.5,1163V1126.2h6.12v14.15a13,13,0,0,1,3.27-2.28,9.61,9.61,0,0,1,4.19-.86,9.1,9.1,0,0,1,3.69.7,7.36,7.36,0,0,1,2.69,2,8.8,8.8,0,0,1,1.64,3,13.1,13.1,0,0,1,.55,3.91V1163h-6.12v-16.18a5.42,5.42,0,0,0-1.08-3.61,4,4,0,0,0-3.23-1.28,6.33,6.33,0,0,0-3,.72,10.66,10.66,0,0,0-2.63,2V1163Z"/><path class="cls-1" d="M1724,1163.43a6.71,6.71,0,0,1-5.08-1.87,7.19,7.19,0,0,1-1.79-5.17v-14.2h-2.58a1.17,1.17,0,0,1-1.21-1.29v-2.43l4.09-.67,1.29-6.94a1.23,1.23,0,0,1,.46-.77,1.46,1.46,0,0,1,.9-.27h3.17v8h6.7v4.36h-6.7V1156a2.7,2.7,0,0,0,.6,1.86,2,2,0,0,0,1.58.66,3,3,0,0,0,1-.13,5.37,5.37,0,0,0,.67-.29l.51-.28a.82.82,0,0,1,.44-.14.73.73,0,0,1,.45.14,2.22,2.22,0,0,1,.37.41l1.83,3a9.09,9.09,0,0,1-3.07,1.69A11.43,11.43,0,0,1,1724,1163.43Z"/><path class="cls-1" d="M1734.86,1163V1137.6h3.74a1.5,1.5,0,0,1,1.56,1.12l.4,1.88a13.79,13.79,0,0,1,1.4-1.36,8.8,8.8,0,0,1,1.56-1.07,8.68,8.68,0,0,1,1.78-.7,7.75,7.75,0,0,1,2.1-.26,5.91,5.91,0,0,1,3.95,1.3,8,8,0,0,1,2.32,3.45,7.65,7.65,0,0,1,1.48-2.16,8.09,8.09,0,0,1,2-1.48,9,9,0,0,1,2.27-.84,11,11,0,0,1,2.42-.27,10.15,10.15,0,0,1,3.74.64,7.22,7.22,0,0,1,2.75,1.88,8.44,8.44,0,0,1,1.7,3,13.41,13.41,0,0,1,.58,4.09V1163h-6.12v-16.18a5.46,5.46,0,0,0-1.07-3.66,3.9,3.9,0,0,0-3.12-1.23,4.58,4.58,0,0,0-1.75.33,4,4,0,0,0-1.41.93,4.1,4.1,0,0,0-.95,1.52,5.73,5.73,0,0,0-.35,2.11V1163h-6.15v-16.18a5.53,5.53,0,0,0-1-3.72,3.8,3.8,0,0,0-3-1.17,4.89,4.89,0,0,0-2.47.66,8.31,8.31,0,0,0-2.14,1.8V1163Z"/><path class="cls-1" d="M1783.11,1126.2V1163H1777V1126.2Z"/><path class="cls-1" d="M1792.43,1157.83v-4.37a1.65,1.65,0,0,1,.25-.9,2,2,0,0,1,.81-.71l9-4.63a12.05,12.05,0,0,1,2.55-.89q-.72-.18-1.35-.39a8,8,0,0,1-1.2-.51l-9-4.61a1.9,1.9,0,0,1-.81-.7,1.68,1.68,0,0,1-.25-.91v-4.36l19.63,10.24v2.48Z"/><path class="cls-1" d="M822.84,1200.22a17.73,17.73,0,0,1-5.24-1.53,14.83,14.83,0,0,1-4.17-2.84l1.82-2.7a1.85,1.85,0,0,1,.63-.58,1.64,1.64,0,0,1,.82-.23,2.15,2.15,0,0,1,1.13.37l1.36.87a17.1,17.1,0,0,0,1.74,1,7.72,7.72,0,0,0,2.32.74l.9-10.69c-1.13-.32-2.25-.7-3.35-1.13a11.29,11.29,0,0,1-3-1.71,7.94,7.94,0,0,1-2.13-2.7,9.08,9.08,0,0,1-.81-4.07,9.24,9.24,0,0,1,.72-3.56,9.42,9.42,0,0,1,2.12-3.1,11.12,11.12,0,0,1,3.41-2.25,11.56,11.56,0,0,1,4.66-.89l.26-3a1.67,1.67,0,0,1,.48-1,1.48,1.48,0,0,1,1.12-.46h2.17l-.4,4.7a13.37,13.37,0,0,1,4.37,1.43,15.59,15.59,0,0,1,3.19,2.32l-1.43,2.17a2.57,2.57,0,0,1-.67.71,1.34,1.34,0,0,1-.81.24,2.09,2.09,0,0,1-.85-.22l-1.12-.55c-.42-.22-.89-.44-1.39-.66a10.6,10.6,0,0,0-1.7-.55l-.84,9.89c1.15.35,2.28.74,3.41,1.16a12.25,12.25,0,0,1,3,1.64,7.68,7.68,0,0,1,2.18,2.49,7.55,7.55,0,0,1,.84,3.74,11.73,11.73,0,0,1-.74,4.17,10.22,10.22,0,0,1-2.16,3.44,11,11,0,0,1-3.5,2.42,14,14,0,0,1-4.75,1.12l-.29,3.51a1.71,1.71,0,0,1-.47,1,1.48,1.48,0,0,1-1.13.46h-2.17Zm-2.41-25.74a3.84,3.84,0,0,0,.31,1.6,4.05,4.05,0,0,0,.87,1.23,5.78,5.78,0,0,0,1.33,1,12.33,12.33,0,0,0,1.67.76l.74-8.84a8.6,8.6,0,0,0-2.25.56,4.84,4.84,0,0,0-1.53,1,3.7,3.7,0,0,0-.87,1.27A4.16,4.16,0,0,0,820.43,1174.48ZM832,1190.1a3.58,3.58,0,0,0-.32-1.59,3.75,3.75,0,0,0-.91-1.2,5.63,5.63,0,0,0-1.37-.91,12.84,12.84,0,0,0-1.72-.69l-.81,9.69a6.17,6.17,0,0,0,3.83-1.71A5,5,0,0,0,832,1190.1Z"/><path class="cls-1" d="M849.8,1168.37a3.43,3.43,0,0,1-.31,1.43,3.94,3.94,0,0,1-.83,1.17,3.82,3.82,0,0,1-1.2.8,3.73,3.73,0,0,1-1.48.3,3.55,3.55,0,0,1-1.45-.3,3.73,3.73,0,0,1-1.18-.8,3.69,3.69,0,0,1-.8-1.17,3.43,3.43,0,0,1-.3-1.43,3.78,3.78,0,0,1,1.1-2.67,3.73,3.73,0,0,1,1.18-.8,3.55,3.55,0,0,1,1.45-.3,3.73,3.73,0,0,1,1.48.3,3.82,3.82,0,0,1,1.2.8,3.91,3.91,0,0,1,.83,1.19A3.7,3.7,0,0,1,849.8,1168.37Zm-.89,7.14V1200H843v-24.5Z"/><path class="cls-1" d="M855.74,1182.72l18.91-9.86v4.2a1.63,1.63,0,0,1-.24.87,1.86,1.86,0,0,1-.79.68l-8.66,4.45a7.44,7.44,0,0,1-1.16.48c-.41.14-.84.26-1.3.37.46.12.89.24,1.3.37a8.59,8.59,0,0,1,1.16.49l8.66,4.47a1.93,1.93,0,0,1,.79.68,1.63,1.63,0,0,1,.24.87v4.2l-18.91-9.88Z"/><path class="cls-1" d="M883.37,1177.56h21.15v4.37H883.37Zm0,8.41h21.15v4.39H883.37Z"/><path class="cls-1" d="M918.87,1200.22a17.73,17.73,0,0,1-5.24-1.53,14.83,14.83,0,0,1-4.17-2.84l1.82-2.7a1.85,1.85,0,0,1,.63-.58,1.64,1.64,0,0,1,.82-.23,2.09,2.09,0,0,1,1.12.37l1.37.87a17.1,17.1,0,0,0,1.74,1,7.74,7.74,0,0,0,2.31.74l.91-10.69c-1.13-.32-2.25-.7-3.35-1.13a11.29,11.29,0,0,1-3-1.71,7.94,7.94,0,0,1-2.13-2.7,8.94,8.94,0,0,1-.82-4.07,9.26,9.26,0,0,1,.73-3.56,9.42,9.42,0,0,1,2.12-3.1,11.12,11.12,0,0,1,3.41-2.25,11.53,11.53,0,0,1,4.66-.89l.26-3a1.67,1.67,0,0,1,.48-1,1.48,1.48,0,0,1,1.12-.46h2.17l-.41,4.7a13.22,13.22,0,0,1,4.37,1.43,15.39,15.39,0,0,1,3.2,2.32l-1.43,2.17a2.57,2.57,0,0,1-.67.71,1.34,1.34,0,0,1-.81.24,2.09,2.09,0,0,1-.85-.22l-1.12-.55c-.42-.22-.89-.44-1.4-.66a10.47,10.47,0,0,0-1.69-.55l-.84,9.89c1.15.35,2.28.74,3.41,1.16a12.25,12.25,0,0,1,3,1.64,7.68,7.68,0,0,1,2.18,2.49,7.55,7.55,0,0,1,.84,3.74,11.73,11.73,0,0,1-.74,4.17,10.54,10.54,0,0,1-2.16,3.44,11.09,11.09,0,0,1-3.5,2.42,14.1,14.1,0,0,1-4.75,1.12l-.29,3.51a1.67,1.67,0,0,1-.48,1,1.44,1.44,0,0,1-1.12.46h-2.17Zm-2.41-25.74a3.84,3.84,0,0,0,.31,1.6,3.89,3.89,0,0,0,.87,1.23,5.72,5.72,0,0,0,1.32,1,13.07,13.07,0,0,0,1.68.76l.74-8.84a8.6,8.6,0,0,0-2.25.56,4.84,4.84,0,0,0-1.53,1,3.57,3.57,0,0,0-.87,1.27A4.16,4.16,0,0,0,916.46,1174.48Zm11.6,15.62a3.73,3.73,0,0,0-.32-1.59,3.9,3.9,0,0,0-.91-1.2,5.83,5.83,0,0,0-1.37-.91,12.84,12.84,0,0,0-1.72-.69l-.81,9.69a6.19,6.19,0,0,0,3.83-1.71A5,5,0,0,0,928.06,1190.1Z"/><path class="cls-1" d="M938.66,1200v-24.5h3.61a1.45,1.45,0,0,1,1.5,1.07l.38,1.82a12.77,12.77,0,0,1,1.35-1.31,8.57,8.57,0,0,1,1.51-1,7.91,7.91,0,0,1,1.72-.68,7.48,7.48,0,0,1,2-.25,5.73,5.73,0,0,1,3.81,1.25,7.52,7.52,0,0,1,2.23,3.33,7.53,7.53,0,0,1,1.44-2.09,8,8,0,0,1,1.88-1.42,9.28,9.28,0,0,1,2.19-.81,10.81,10.81,0,0,1,2.33-.26,9.64,9.64,0,0,1,3.6.62,7,7,0,0,1,2.65,1.81,8.07,8.07,0,0,1,1.64,2.92,12.79,12.79,0,0,1,.56,3.94V1200h-5.9v-15.59a5.24,5.24,0,0,0-1-3.53,3.77,3.77,0,0,0-3-1.18,4.66,4.66,0,0,0-1.69.31,4,4,0,0,0-2.28,2.37,5.76,5.76,0,0,0-.33,2V1200h-5.92v-15.59a5.37,5.37,0,0,0-1-3.59,3.75,3.75,0,0,0-2.93-1.12,4.76,4.76,0,0,0-2.38.63,8.09,8.09,0,0,0-2.06,1.74V1200Z"/><path class="cls-1" d="M986,1168.37a3.28,3.28,0,0,1-.31,1.43,3.74,3.74,0,0,1-.82,1.17,3.87,3.87,0,0,1-1.21.8,3.66,3.66,0,0,1-1.48.3,3.51,3.51,0,0,1-1.44-.3,3.62,3.62,0,0,1-1.18-.8,3.53,3.53,0,0,1-.8-1.17,3.43,3.43,0,0,1-.3-1.43,3.69,3.69,0,0,1,.3-1.48,3.52,3.52,0,0,1,.8-1.19,3.62,3.62,0,0,1,1.18-.8,3.51,3.51,0,0,1,1.44-.3,3.66,3.66,0,0,1,1.48.3,3.87,3.87,0,0,1,1.21.8,3.72,3.72,0,0,1,.82,1.19A3.54,3.54,0,0,1,986,1168.37Zm-.88,7.14V1200h-5.9v-24.5Z"/><path class="cls-1" d="M991.81,1200v-24.5h3.61a1.45,1.45,0,0,1,1.5,1.07l.41,1.94a13.61,13.61,0,0,1,1.56-1.39,11.14,11.14,0,0,1,1.74-1.07,9,9,0,0,1,2-.69,10.32,10.32,0,0,1,2.29-.24,8.83,8.83,0,0,1,3.56.68,6.92,6.92,0,0,1,2.59,1.91,8.31,8.31,0,0,1,1.58,2.94,12.37,12.37,0,0,1,.54,3.76V1200h-5.9v-15.59a5.26,5.26,0,0,0-1-3.48,3.85,3.85,0,0,0-3.12-1.23,6.13,6.13,0,0,0-2.86.69,10.56,10.56,0,0,0-2.53,1.89V1200Z"/><path class="cls-1" d="M1018.5,1179.74a3.69,3.69,0,0,1,.28-1.41,3.39,3.39,0,0,1,.76-1.15,3.71,3.71,0,0,1,1.16-.76,3.62,3.62,0,0,1,1.43-.29,3.61,3.61,0,0,1,3.32,5,3.68,3.68,0,0,1-.76,1.13,3.37,3.37,0,0,1-1.15.75,3.51,3.51,0,0,1-1.41.28,3.61,3.61,0,0,1-1.43-.28,3.41,3.41,0,0,1-1.92-1.88A3.71,3.71,0,0,1,1018.5,1179.74Zm.17,16.64a3.12,3.12,0,0,1,.25-1.26,3,3,0,0,1,.71-1,3,3,0,0,1,1.09-.69,3.8,3.8,0,0,1,1.41-.25,3.54,3.54,0,0,1,1.58.32,3.23,3.23,0,0,1,1.12.88,3.61,3.61,0,0,1,.67,1.29,5.56,5.56,0,0,1,.21,1.54,9.15,9.15,0,0,1-.34,2.41,12.19,12.19,0,0,1-1,2.53,14,14,0,0,1-1.64,2.46,14.66,14.66,0,0,1-2.25,2.2l-1-.93a1.11,1.11,0,0,1-.43-.89.91.91,0,0,1,.13-.43,1.66,1.66,0,0,1,.32-.43l.64-.7a10.08,10.08,0,0,0,.77-1,8.7,8.7,0,0,0,.7-1.16,5.41,5.41,0,0,0,.47-1.35,3.34,3.34,0,0,1-1.36-.28,3.14,3.14,0,0,1-1.07-.75,3.64,3.64,0,0,1-.69-1.12A3.8,3.8,0,0,1,1018.67,1196.38Z"/><path class="cls-1" d="M622.54,627.46V641h-7.16V602.5h12.54a22.18,22.18,0,0,1,6.69.91,12.91,12.91,0,0,1,4.66,2.53,9.86,9.86,0,0,1,2.71,3.89,13.49,13.49,0,0,1,.88,4.95,13.73,13.73,0,0,1-.93,5.13,10.6,10.6,0,0,1-2.8,4,13.2,13.2,0,0,1-4.66,2.61,20.78,20.78,0,0,1-6.55.93Zm0-5.6h5.38a10.81,10.81,0,0,0,3.44-.49,6.48,6.48,0,0,0,2.42-1.41,5.77,5.77,0,0,0,1.44-2.24,8.55,8.55,0,0,0,.48-2.94,7.8,7.8,0,0,0-.48-2.8,5.59,5.59,0,0,0-1.44-2.13,6.5,6.5,0,0,0-2.42-1.34,11.44,11.44,0,0,0-3.44-.47h-5.38Z"/><path class="cls-1" d="M680.92,641H673.7V624.18H655.64V641h-7.21V602.5h7.21v16.57H673.7V602.5h7.22Z"/><path class="cls-1" d="M696.1,627.46V641h-7.17V602.5h12.55a22.06,22.06,0,0,1,6.68.91,12.83,12.83,0,0,1,4.66,2.53,9.89,9.89,0,0,1,2.72,3.89,14.49,14.49,0,0,1,0,10.08,10.82,10.82,0,0,1-2.8,4,13.29,13.29,0,0,1-4.66,2.61,20.83,20.83,0,0,1-6.55.93Zm0-5.6h5.38a10.71,10.71,0,0,0,3.43-.49,6.44,6.44,0,0,0,2.43-1.41,5.75,5.75,0,0,0,1.43-2.24,8.55,8.55,0,0,0,.48-2.94,7.8,7.8,0,0,0-.48-2.8,5.57,5.57,0,0,0-1.43-2.13,6.47,6.47,0,0,0-2.43-1.34,11.33,11.33,0,0,0-3.43-.47H696.1Z"/><path class="cls-1" d="M1393.27,1183.52a1.23,1.23,0,0,1,.93.42l2.63,2.85a14.51,14.51,0,0,1-5.36,4.13,18.55,18.55,0,0,1-7.63,1.43,18,18,0,0,1-7.16-1.36,15.88,15.88,0,0,1-5.43-3.78,16.65,16.65,0,0,1-3.45-5.79,21.71,21.71,0,0,1-1.2-7.35,19.78,19.78,0,0,1,1.34-7.38,16.66,16.66,0,0,1,9.56-9.55,19.89,19.89,0,0,1,7.46-1.34,17.61,17.61,0,0,1,7,1.27,16.25,16.25,0,0,1,5.1,3.37l-2.22,3.1a2.09,2.09,0,0,1-.51.52,1.48,1.48,0,0,1-.85.22,1.91,1.91,0,0,1-1.16-.45,17.08,17.08,0,0,0-1.51-1,11.2,11.2,0,0,0-5.86-1.41,11.88,11.88,0,0,0-4.64.88,10.28,10.28,0,0,0-3.64,2.51,11.53,11.53,0,0,0-2.37,4,15.22,15.22,0,0,0-.85,5.25,15.68,15.68,0,0,0,.85,5.37,11.82,11.82,0,0,0,2.31,4,9.88,9.88,0,0,0,3.44,2.46,10.61,10.61,0,0,0,4.25.85,18.25,18.25,0,0,0,2.46-.15,10.07,10.07,0,0,0,2-.47,8.84,8.84,0,0,0,1.76-.83,10,10,0,0,0,1.64-1.25,2.79,2.79,0,0,1,.52-.35A1.33,1.33,0,0,1,1393.27,1183.52Z"/><path class="cls-1" d="M1415,1162.94v10.14h9.63v4.53H1415v10.19h-4.94v-10.19h-9.57v-4.53h9.57v-10.14Z"/><path class="cls-1" d="M1443.69,1162.94v10.14h9.62v4.53h-9.62v10.19h-4.94v-10.19h-9.57v-4.53h9.57v-10.14Z"/><path class="cls-1" d="M1411.48,845.1a17.39,17.39,0,0,1-.69,5.08,10.6,10.6,0,0,1-2.07,3.86,9.09,9.09,0,0,1-3.43,2.45,12.42,12.42,0,0,1-4.79.85,19.61,19.61,0,0,1-2.44-.15,23,23,0,0,1-2.52-.47l.32-3.7a1.24,1.24,0,0,1,.38-.82,1.39,1.39,0,0,1,1-.31,4.18,4.18,0,0,1,1,.16,6.61,6.61,0,0,0,1.61.16,6.47,6.47,0,0,0,2.33-.38,3.91,3.91,0,0,0,1.7-1.21,5.57,5.57,0,0,0,1-2.16,13,13,0,0,0,.34-3.22V823.56h6.22Z"/><path class="cls-1" d="M1446.39,857h-4.81a2.08,2.08,0,0,1-1.32-.4,2.36,2.36,0,0,1-.76-1l-2.49-6.81h-13.84l-2.49,6.81a2.21,2.21,0,0,1-.73,1,2,2,0,0,1-1.33.44h-4.83l13.12-33.41h6.36Zm-21.63-12.61h10.66l-4.07-11.11c-.19-.5-.39-1.08-.61-1.75s-.45-1.4-.66-2.18c-.22.78-.43,1.51-.64,2.19s-.41,1.27-.61,1.78Z"/><path class="cls-1" d="M1442.65,823.56h5a2.12,2.12,0,0,1,1.32.4,2.4,2.4,0,0,1,.76,1l7.86,20.38c.26.66.51,1.39.75,2.18s.46,1.63.68,2.51a27.8,27.8,0,0,1,1.32-4.69l7.83-20.38a2.45,2.45,0,0,1,.74-1,2,2,0,0,1,1.31-.44h5L1461.75,857h-5.61Z"/><path class="cls-1" d="M1504.2,857h-4.81a2.1,2.1,0,0,1-1.33-.4,2.34,2.34,0,0,1-.75-1l-2.49-6.81H1481l-2.5,6.81a2.07,2.07,0,0,1-.73,1,2,2,0,0,1-1.32.44h-4.83l13.12-33.41h6.35Zm-21.63-12.61h10.65l-4.06-11.11c-.19-.5-.39-1.08-.62-1.75s-.44-1.4-.66-2.18q-.32,1.17-.63,2.19c-.21.68-.41,1.27-.61,1.78Z"/><path class="cls-1" d="M1415.94,885.09a1.76,1.76,0,0,1-.59.72,1.46,1.46,0,0,1-.8.2,2,2,0,0,1-1-.35c-.38-.24-.84-.51-1.36-.8a11.4,11.4,0,0,0-1.84-.8,7.68,7.68,0,0,0-2.48-.36,7.22,7.22,0,0,0-2.25.32,4.64,4.64,0,0,0-1.62.86,3.37,3.37,0,0,0-1,1.33,4.29,4.29,0,0,0-.33,1.7,2.94,2.94,0,0,0,.66,2,5.38,5.38,0,0,0,1.75,1.34,16.46,16.46,0,0,0,2.47,1c.92.29,1.87.6,2.83.93a27.58,27.58,0,0,1,2.83,1.16,9.82,9.82,0,0,1,2.47,1.66,7.48,7.48,0,0,1,1.75,2.46,8.71,8.71,0,0,1,.65,3.54,11.45,11.45,0,0,1-.77,4.24,10,10,0,0,1-2.26,3.44,10.69,10.69,0,0,1-3.64,2.31,13.5,13.5,0,0,1-4.92.84,15.8,15.8,0,0,1-3.15-.31,16.44,16.44,0,0,1-3-.89,15.15,15.15,0,0,1-2.65-1.39,12.23,12.23,0,0,1-2.21-1.8l1.8-3a2.49,2.49,0,0,1,.62-.54,1.43,1.43,0,0,1,.79-.22,2.24,2.24,0,0,1,1.25.47c.45.32,1,.67,1.58,1a12.31,12.31,0,0,0,2.15,1.06,8.49,8.49,0,0,0,3,.47,6.09,6.09,0,0,0,4.11-1.26,4.52,4.52,0,0,0,1.46-3.62,3.33,3.33,0,0,0-.66-2.14,5.32,5.32,0,0,0-1.74-1.4,12.82,12.82,0,0,0-2.48-1c-.92-.26-1.86-.55-2.81-.86a22.54,22.54,0,0,1-2.82-1.1,9.46,9.46,0,0,1-2.48-1.69,7.71,7.71,0,0,1-1.74-2.6,9.89,9.89,0,0,1-.66-3.85,9.18,9.18,0,0,1,2.86-6.63,10.49,10.49,0,0,1,3.43-2.15,12.43,12.43,0,0,1,4.64-.81,15.47,15.47,0,0,1,5.45.93,12.29,12.29,0,0,1,4.25,2.59Z"/><path class="cls-1" d="M1439.16,893.73a2.7,2.7,0,0,1-.5.51,1.17,1.17,0,0,1-.7.18,1.54,1.54,0,0,1-.86-.26q-.42-.27-1-.6a7.42,7.42,0,0,0-1.38-.6,6.2,6.2,0,0,0-2-.27,6.1,6.1,0,0,0-2.64.54,5.17,5.17,0,0,0-1.88,1.56,7.11,7.11,0,0,0-1.12,2.47,13,13,0,0,0-.37,3.26,12.83,12.83,0,0,0,.41,3.38,7,7,0,0,0,1.16,2.48,5.12,5.12,0,0,0,1.85,1.53,5.68,5.68,0,0,0,2.45.52,6.18,6.18,0,0,0,2.21-.34,7,7,0,0,0,1.42-.74c.38-.27.72-.51,1-.74a1.55,1.55,0,0,1,1-.33,1.15,1.15,0,0,1,1,.53l1.64,2.08a10.24,10.24,0,0,1-2.06,1.86,10.91,10.91,0,0,1-2.29,1.2,11.63,11.63,0,0,1-2.47.63,16.41,16.41,0,0,1-2.51.19,10.44,10.44,0,0,1-4.14-.82,9.65,9.65,0,0,1-3.38-2.39,11.39,11.39,0,0,1-2.29-3.85,15,15,0,0,1-.84-5.19,15.11,15.11,0,0,1,.75-4.84,10.92,10.92,0,0,1,2.2-3.85,10.17,10.17,0,0,1,3.61-2.56,12.51,12.51,0,0,1,4.94-.92,11.81,11.81,0,0,1,4.66.85,11.41,11.41,0,0,1,3.59,2.45Z"/><path class="cls-1" d="M1444.54,912.42v-23.7h3.35a1.8,1.8,0,0,1,1.22.32,1.85,1.85,0,0,1,.47,1.11l.34,2.86a11.34,11.34,0,0,1,3-3.46,6.26,6.26,0,0,1,3.84-1.27,5,5,0,0,1,2.91.81l-.74,4.27a.9.9,0,0,1-.3.59,1,1,0,0,1-.62.17,3.79,3.79,0,0,1-1-.16,6.22,6.22,0,0,0-1.59-.16,4.84,4.84,0,0,0-3,1,7.56,7.56,0,0,0-2.15,2.88v14.76Z"/><path class="cls-1" d="M1470.35,881.81a3.31,3.31,0,0,1-.3,1.39,3.93,3.93,0,0,1-.8,1.13,3.78,3.78,0,0,1-1.17.77,3.58,3.58,0,0,1-1.43.29,3.51,3.51,0,0,1-1.4-.29,3.64,3.64,0,0,1-1.14-.77,3.84,3.84,0,0,1-.77-1.13,3.3,3.3,0,0,1-.29-1.39,3.42,3.42,0,0,1,.29-1.43,3.73,3.73,0,0,1,.77-1.16,3.64,3.64,0,0,1,1.14-.77,3.51,3.51,0,0,1,1.4-.29,3.58,3.58,0,0,1,1.43.29,3.67,3.67,0,0,1,2,1.93A3.43,3.43,0,0,1,1470.35,881.81Zm-.86,6.91v23.7h-5.7v-23.7Z"/><path class="cls-1" d="M1475.94,920.16V888.72h3.49a1.67,1.67,0,0,1,.94.25,1.14,1.14,0,0,1,.51.79l.46,2.19a12,12,0,0,1,3.3-2.65,8.91,8.91,0,0,1,4.35-1,7.76,7.76,0,0,1,3.55.81,8,8,0,0,1,2.77,2.34,11.21,11.21,0,0,1,1.8,3.79,18.8,18.8,0,0,1,.64,5.17,16.16,16.16,0,0,1-.72,4.92,12.16,12.16,0,0,1-2,3.92,9.48,9.48,0,0,1-3.21,2.6,9.28,9.28,0,0,1-4.22.94,8.63,8.63,0,0,1-3.41-.61,8.33,8.33,0,0,1-2.5-1.7v9.7ZM1487,892.78a5.74,5.74,0,0,0-3,.76,8.65,8.65,0,0,0-2.34,2.11v10.63a5.33,5.33,0,0,0,2.11,1.67,6.27,6.27,0,0,0,2.46.48,5.57,5.57,0,0,0,2.34-.49,4.45,4.45,0,0,0,1.78-1.48,7.18,7.18,0,0,0,1.12-2.51,13.81,13.81,0,0,0,.4-3.56,15.45,15.45,0,0,0-.34-3.53,6.65,6.65,0,0,0-1-2.34,3.8,3.8,0,0,0-1.51-1.32A4.68,4.68,0,0,0,1487,892.78Z"/><path class="cls-1" d="M1509.85,912.79a6.24,6.24,0,0,1-4.73-1.74,6.71,6.71,0,0,1-1.67-4.82V893h-2.4a1.17,1.17,0,0,1-.8-.3,1.16,1.16,0,0,1-.33-.9v-2.26l3.81-.63,1.2-6.47a1.16,1.16,0,0,1,.43-.71,1.36,1.36,0,0,1,.84-.26h3v7.47h6.24V893h-6.24v12.85a2.52,2.52,0,0,0,.56,1.73,1.86,1.86,0,0,0,1.47.62,2.77,2.77,0,0,0,.89-.12,6.61,6.61,0,0,0,.63-.27l.47-.26a.76.76,0,0,1,.42-.13.59.59,0,0,1,.41.13,1.65,1.65,0,0,1,.35.38l1.71,2.77a8.61,8.61,0,0,1-2.87,1.57A10.73,10.73,0,0,1,1509.85,912.79Z"/><path class="cls-86" d="M1362.36,1019.69a4.17,4.17,0,0,0-.18-6.13l-217.49-194a2,2,0,0,0-2.22-.31h0a2,2,0,0,0-.5,3.32l214.67,197.25a4.16,4.16,0,0,0,5.72-.08Z"/><path class="cls-87" d="M1489.53,1497.45a3.79,3.79,0,0,1,.09-.94c4.66-18.45,27.77-30,27.77-30l9.15.72c5.27,16.27,4.59,26.24,3.74,30.69,0,.12-.06.24-.09.36A217.53,217.53,0,0,1,1489.53,1497.45Z"/><path class="cls-88" d="M1530.19,1498.33a4,4,0,0,1-2.91,2.93c-10.74,2.26-27.82.45-35-.49a3.34,3.34,0,0,1-2.76-3.32A217.53,217.53,0,0,0,1530.19,1498.33Z"/><path class="cls-89" d="M1566.45,1170.72c5.65,6,14,11.26,19.84,14.51-8.75,10.81-20.59,21.64-36.27,32.25l-4.48,10.06-14.38-17.22S1557,1197.48,1566.45,1170.72Z"/><path class="cls-90" d="M1530.22,1453.64l-3.87,18.67a3.06,3.06,0,0,1-2.61,2.51,25.6,25.6,0,0,1-6-.1,3.83,3.83,0,0,1-3-4.5l2.7-16.58Z"/><path class="cls-91" d="M1449.88,1498.14c10.11-.28,15.34-1.47,18-2.58,0,1,0,2,0,3.09a2,2,0,0,1-1.91,2l-55.52-.36a2.54,2.54,0,0,1-2-3.69C1415.7,1497.23,1434.24,1498.58,1449.88,1498.14Z"/><path class="cls-92" d="M1408.42,1496.63a4.23,4.23,0,0,1,.22-.42c4.91-6.85,17.39-20.49,42.07-26.41l11.84-.37s5.27,9.16,5.37,26.13c-2.7,1.11-7.93,2.3-18,2.58C1434.24,1498.58,1415.7,1497.23,1408.42,1496.63Z"/><path class="cls-93" d="M1464.75,1451.49c-.14.88-1.76,14.29-2.39,19.49a2.58,2.58,0,0,1-2.17,2.33,27,27,0,0,1-8.13-.13,3.49,3.49,0,0,1-2.65-3.51v-21.05Z"/><path class="cls-94" d="M1474.24,1206.73s-28.55,108.51-28,245.07a5.28,5.28,0,0,0,4.19,5.15,61.53,61.53,0,0,0,13.24,1.53,4.89,4.89,0,0,0,4.67-4.09c4-23.48,27-155.75,40.07-177.23,0,0,8.61,117.81,5.86,178.93a2.9,2.9,0,0,0,2.56,3,48.66,48.66,0,0,0,10.62,0,3.89,3.89,0,0,0,3.46-3.29c2.85-19.87,19.26-138.15,18.57-223.36,0-4.8-12.71-25.69-12.71-25.69Z"/><path class="cls-95" d="M1430.46,1060.57c5-12.78,13.43-21.53,21.91-31.64,31.79,5.77,83.89,10.91,105.62,13.65a27.64,27.64,0,0,1,17.46,9.37c17.72,20.51,56.63,76.68,10.84,133.28-5.86-3.25-14.19-8.47-19.84-14.51,5.06-14.28,5.48-32.52-5.14-54.9a53.37,53.37,0,0,1-1.35,5.26c-14.64,46.35-15.42,84.93-15.38,93.82a3,3,0,0,1-1.85,2.74c-19.25,7.72-56.32,3.12-68.77,1.27a4.19,4.19,0,0,1-3.5-4.75c6.11-44.24-25.23-117-33.51-135.26a12.09,12.09,0,0,0-6-6c-1.34-.6-2.65-1.22-3.94-1.85A107.63,107.63,0,0,1,1430.46,1060.57Z"/><path class="cls-96" d="M1524.7,1000l2.27,39.56a2.43,2.43,0,0,1-1.82,2.5c-5,1.27-18.9,3.79-31-3.08a4,4,0,0,1-1.79-4.5l10.1-35.55Z"/><path class="cls-97" d="M1500,956.79c-.51.48-21.67,42-21.67,42l24,11.57,25.9-36.39S1508.55,948.7,1500,956.79Z"/><path class="cls-98" d="M1517.55,975a3.79,3.79,0,0,1-.29,3.36l-12,19.94a3.66,3.66,0,0,1-.66.81c-1.42,1.33-6.29,5.18-10.06-.07-3.21-4.47-6.22-8.53-9.45-10.21a3.81,3.81,0,0,0-5.15,1.7,142.56,142.56,0,0,0-8.19,19.41,3.81,3.81,0,0,0,2.22,4.67c4.85,2,14.45,5.52,23,6.7a3.84,3.84,0,0,0,3.62-1.54c3.66-5,14-19,17.51-22.55,3.27-3.26,9.32-2,12-1.25a3.84,3.84,0,0,0,3-.4c2.77-1.67,7.59-5.81,3.18-12.82a3.82,3.82,0,0,1,1.18-5.2c3.09-2,6.43-5.84,3.24-12s-9-6.8-12.91-6.32a4,4,0,0,1-4.17-2.32,2.52,2.52,0,0,0-2-1.55,3.72,3.72,0,0,1-3-4.36c.69-3.53.17-8.12-5.47-11.23-10.34-5.68-19.41,3.58-21.71,11.41s9.26,13.35,16.54,14.27C1513.44,966.12,1516.37,972,1517.55,975Z"/><path class="cls-99" d="M1513.62,1004.54s4.6-13.46,10.49-13,10.52,6.36,3.22,13C1518.26,1012.73,1513.62,1004.54,1513.62,1004.54Z"/><path class="cls-100" d="M1563.25,1112.35c7.77-21.24,5-46.89,4.92-47.15l-2.14.25c0,.25,2.79,25.41-4.8,46.16Z"/><path class="cls-101" d="M1509.43,1274.4a1.07,1.07,0,0,0,1-.81c2.37-9.13,20.1-19.17,20.28-19.27a1.08,1.08,0,0,0-1-1.88c-.77.43-18.71,10.59-21.31,20.61a1.07,1.07,0,0,0,.77,1.31A.84.84,0,0,0,1509.43,1274.4Z"/><path class="cls-102" d="M1357.74,1041.21c30.22,11,94.63-12.28,94.63-12.28l4.43,52.63c-51.57,16.3-85.13,11.55-107-2.13C1348.48,1063.87,1353.16,1050.34,1357.74,1041.21Z"/><path class="cls-103" d="M1309.62,986.9l12.65-2.51s3.45,40.25,31.62,55.13a33.64,33.64,0,0,0,3.85,1.69c-4.58,9.13-9.26,22.66-7.9,38.22C1305.49,1051.62,1309.62,986.9,1309.62,986.9Z"/><path class="cls-104" d="M1321.63,987.9l.64-3.51s2.64-8.57-4.34-17c-10.09-12.2-17.48-7.71-17.48-7.71a26.71,26.71,0,0,1,.49,4.92,2.17,2.17,0,0,1-3.64,1.55L1280.84,951s-4.61,24,30.7,40.54Z"/></g></svg>